<svg width="277" height="62" viewBox="0 0 277 62" fill="none" xmlns="http://www.w3.org/2000/svg">
<g clip-path="url(#clip0_46401_274)">
<mask id="mask0_46401_274" style="mask-type:luminance" maskUnits="userSpaceOnUse" x="-112" y="-146" width="500" height="354">
<path d="M387.883 -145.414H-111.311V207.561H387.883V-145.414Z" fill="white"/>
</mask>
<g mask="url(#mask0_46401_274)">
<mask id="mask1_46401_274" style="mask-type:luminance" maskUnits="userSpaceOnUse" x="-112" y="-146" width="500" height="354">
<path d="M387.942 -145.832H-111.311V207.558H387.942V-145.832Z" fill="white"/>
</mask>
<g mask="url(#mask1_46401_274)">
<path fill-rule="evenodd" clip-rule="evenodd" d="M36.3892 -0.0859375C51.8649 -0.0859375 64.4351 12.4843 64.4351 27.96C64.4351 32.1105 63.5457 36.0239 61.9448 39.5815C63.0714 36.4983 63.7236 33.1185 63.7236 29.6795C63.7236 13.7295 50.7976 0.803468 34.8476 0.803468C30.697 0.803468 26.7243 1.69287 23.1074 3.2938C27.0801 1.15923 31.5864 -0.0859375 36.3892 -0.0859375Z" fill="white"/>
</g>
<mask id="mask2_46401_274" style="mask-type:luminance" maskUnits="userSpaceOnUse" x="-112" y="-146" width="500" height="354">
<path d="M387.942 -145.832H-111.311V207.558H387.942V-145.832Z" fill="white"/>
</mask>
<g mask="url(#mask2_46401_274)">
<path fill-rule="evenodd" clip-rule="evenodd" d="M40.6589 23.7476C38.2871 21.3758 34.4924 21.3758 32.1206 23.7476C29.7489 26.1193 29.7489 29.9141 32.1206 32.2859C34.4924 34.6576 38.2871 34.6576 40.6589 32.2859C43.0306 29.9141 43.0306 26.06 40.6589 23.7476Z" fill="white"/>
</g>
<mask id="mask3_46401_274" style="mask-type:luminance" maskUnits="userSpaceOnUse" x="-112" y="-146" width="500" height="354">
<path d="M387.942 -145.832H-111.311V207.558H387.942V-145.832Z" fill="white"/>
</mask>
<g mask="url(#mask3_46401_274)">
<path fill-rule="evenodd" clip-rule="evenodd" d="M20.9724 62.2322H-0.0175781L20.9724 41.2422V62.2322Z" fill="white"/>
</g>
<mask id="mask4_46401_274" style="mask-type:luminance" maskUnits="userSpaceOnUse" x="-112" y="-146" width="500" height="354">
<path d="M387.942 -145.832H-111.311V207.558H387.942V-145.832Z" fill="white"/>
</mask>
<g mask="url(#mask4_46401_274)">
<path fill-rule="evenodd" clip-rule="evenodd" d="M57.8531 17.5233C57.9124 17.464 57.7938 17.2268 57.7938 17.2268L57.7345 17.2861C57.7345 17.2861 57.6752 17.2861 57.6159 17.2861H57.5566H57.4973C57.4973 17.2861 57.4973 17.2861 57.438 17.2861C57.438 17.2861 57.438 17.2861 57.3787 17.2861C57.3787 17.3454 57.4973 17.5233 57.6159 17.5826C57.6752 17.5826 57.7345 17.5826 57.7345 17.5826C57.7345 17.5826 57.8531 17.5826 57.8531 17.5233ZM50.4414 13.7878C50.4414 13.8471 50.4414 13.8471 50.4414 13.8471C50.4414 13.9657 50.5599 14.0249 50.5599 14.0842C50.6192 14.1435 50.5599 14.2621 50.5599 14.2621C50.5599 14.3214 50.5599 14.3214 50.5599 14.3807L50.6192 14.44L50.9157 14.6179C50.975 14.5586 50.7971 14.2621 50.6785 14.0249C50.6785 14.0249 50.5006 13.7285 50.4414 13.7878C50.4414 13.7285 50.4414 13.7285 50.4414 13.7878ZM49.4334 15.7445C49.3741 15.8037 49.2555 15.8038 49.2555 15.863C49.1962 15.9223 49.1962 15.9223 49.2555 15.9223C49.3148 15.9223 49.4334 15.9816 49.4927 15.9816C49.552 15.9816 49.6112 15.9816 49.6112 15.9816C49.6112 15.9816 49.6112 15.9816 49.6705 15.9223L49.7298 15.7445C49.7298 15.7445 49.6113 15.6852 49.4334 15.7445ZM51.2122 15.8038L51.2715 15.863C51.3308 15.863 51.5679 15.6852 51.5087 15.448C51.5087 15.448 51.5086 15.3887 51.4494 15.3887C51.3901 15.2701 51.3901 15.2701 51.3308 15.2701C51.2715 15.2701 51.2715 15.2701 51.2715 15.2701C51.2122 15.3294 51.0343 15.448 50.975 15.5666C50.975 15.6852 51.0343 15.9816 51.1529 16.0409L51.2122 15.8038ZM55.8964 17.0489C55.8371 17.0489 55.8371 17.1082 55.8964 17.1675C56.015 17.2861 56.4893 17.3454 56.6672 17.2861L56.3707 17.0489C56.3114 17.0489 56.2521 17.0489 56.2521 17.0489C56.1929 17.0489 56.0743 17.0489 56.015 17.1082C55.9557 17.0489 55.9557 17.0489 55.8964 17.0489ZM25.1823 9.28145C25.0637 9.34074 24.7672 9.63722 25.0044 9.69651C25.0637 9.69651 25.123 9.69651 25.123 9.69651C25.123 9.69651 25.123 9.69651 25.1823 9.69651L25.4194 9.57792C25.4194 9.57792 25.4787 9.51863 25.4787 9.45934V9.40004C25.4194 9.40004 25.4194 9.34074 25.3601 9.34074C25.3008 9.34074 25.3008 9.34074 25.3008 9.28145C25.3008 9.28145 25.2415 9.22215 25.1823 9.28145ZM36.3888 6.79112C36.3295 6.73183 36.2109 6.67253 36.0923 6.67253C36.0923 6.67253 36.0923 6.67253 36.033 6.67253C35.8551 6.67253 35.7365 6.79112 35.5586 6.79112C35.4401 6.79112 35.3215 6.73183 35.2029 6.73183C35.0843 6.79112 34.9657 6.9097 34.8471 6.969C34.7285 7.02829 34.5507 7.08758 34.4914 7.14687C34.4321 7.20616 34.4914 7.32476 34.4914 7.32476C34.4321 7.38406 34.3135 7.32477 34.2542 7.38406V7.44334C34.2542 7.56193 34.4321 7.68052 34.3135 7.8584C34.2542 7.8584 33.8984 7.73982 33.7798 7.62123C33.602 7.44335 33.0683 7.50264 32.9497 7.62123C33.009 7.73982 33.1276 7.62122 33.2462 7.73981C33.3055 7.91769 33.0683 7.97699 33.009 8.09557C33.0683 8.09557 33.1869 8.03629 33.3055 7.977C33.4241 7.9177 34.017 7.9177 33.8391 8.21417C34.017 8.33276 34.1356 8.15487 34.2542 8.15487C34.4321 8.15487 34.4321 8.21416 34.4914 8.33274C34.5507 8.33274 34.5507 8.33276 34.7878 8.21417C34.9657 8.09558 35.025 8.09557 35.0843 8.09557C35.2029 8.03628 35.3808 8.03628 35.4994 8.03628C35.4994 8.03628 35.4994 8.03628 35.5586 8.03628C35.6179 8.03628 35.6772 7.97699 35.9737 7.7991C36.2702 7.62122 36.6259 7.08758 36.5666 6.969C36.448 6.9097 36.3295 6.85042 36.3888 6.79112ZM40.9544 9.04428C41.0137 9.16286 40.9544 9.34075 41.073 9.45934C41.1323 9.45934 41.1915 9.40003 41.3101 9.22215C41.3694 9.16286 41.3694 9.10357 41.488 9.10357C41.7252 9.16287 41.5473 9.40003 41.6659 9.51862C41.9031 9.75579 42.081 9.75581 42.2588 9.75581C42.5553 9.75581 42.6146 9.69651 42.7332 9.75581C42.7332 9.8151 42.7332 9.87438 42.7925 9.87438C42.9111 9.99297 43.0889 10.0523 43.2075 10.1709C43.2668 10.2894 43.0889 10.2894 42.9111 10.2894C42.8518 10.2894 42.8518 10.2895 42.6739 10.3487C42.7925 10.5266 43.0889 10.5266 43.1482 10.7045C43.2075 10.8231 43.1482 10.8824 43.0296 11.0603C43.0296 11.1196 42.9111 11.1789 42.9704 11.1789C42.9704 11.1789 43.0889 11.2381 43.4447 11.1196C43.5633 11.0603 43.9191 10.9417 43.9783 11.0603C44.0376 11.1196 43.9784 11.1789 43.8598 11.2381C43.7412 11.2974 43.7412 11.2974 43.6819 11.3567C43.6226 11.4753 43.6819 11.5346 43.6226 11.6532C43.5633 11.7718 43.4447 11.8904 43.4447 12.009C43.504 12.009 43.504 12.009 44.1562 11.6532C44.512 11.4753 44.8678 11.3567 45.2235 11.2381L45.7572 10.8231C45.5793 10.7638 45.4607 10.9417 45.2828 10.9417C45.1642 10.7638 45.2828 10.5266 45.1049 10.408C44.8677 10.1116 44.7492 10.1709 44.6306 10.2301C44.3934 10.2894 44.0969 10.0523 44.0969 10.0523C44.0969 10.0523 44.0969 10.0523 44.3341 9.99298C44.4527 9.99298 44.5713 9.99297 44.5713 9.93368C44.5713 9.93368 44.512 9.87438 44.4527 9.87438C44.0969 9.7558 43.6819 9.7558 43.3261 9.63721C43.1482 9.57792 43.0296 9.40004 42.7925 9.40004C42.496 9.34075 42.1995 9.40004 42.081 9.40004C42.1995 9.22216 42.1402 8.45135 41.7252 8.56993C41.6659 8.62923 41.5473 8.62922 41.5473 8.68851C41.3101 8.8071 41.2508 8.8071 41.1916 8.74781C41.1323 8.62922 41.2508 8.27345 41.073 8.33274C41.073 8.33274 40.5393 8.51063 40.5393 8.74781C40.5393 8.74781 40.5393 8.74781 40.5393 8.8071C40.7172 8.8071 40.8358 8.86639 40.9544 9.04428ZM41.073 10.8824C41.0137 11.1196 41.073 11.4753 41.073 11.4753C41.073 11.6532 41.1323 11.7125 41.1916 11.7125C41.3101 11.7718 41.6659 11.5939 41.9031 11.3567C41.9624 11.2974 42.0217 11.2381 42.081 11.1196C42.1403 11.0603 42.2588 11.0603 42.3181 10.8824C42.3181 10.8231 42.2588 10.7045 42.1402 10.5266C42.0809 10.4673 42.0217 10.408 41.9624 10.3487C41.8438 10.2302 41.8438 10.2301 41.8438 10.1116C41.8438 10.0523 41.8438 9.99297 41.7845 9.87438C41.7252 9.81509 41.6066 9.7558 41.5473 9.69651C41.488 9.69651 41.488 9.69651 41.4287 9.69651C41.3101 9.69651 41.2508 9.69651 41.1323 9.69651C41.073 9.69651 41.0137 9.69651 41.0137 9.69651C41.0137 9.69651 40.48 10.0523 40.8951 10.1116C40.8951 10.1116 40.9544 10.1116 41.0137 10.1116C41.0137 10.1116 41.0137 10.1709 40.9544 10.1709C40.7765 10.3487 40.7172 10.4673 40.7172 10.5266C40.7172 10.5859 40.6579 10.6452 40.7172 10.7638C40.7172 10.7638 40.7765 10.8231 40.8951 10.8824C40.8951 10.9417 40.9544 10.8824 41.073 10.8824ZM54.7698 11.9497C54.7105 11.9497 54.7105 11.9497 54.6512 12.009C54.6512 12.424 55.4813 12.6612 55.1256 13.0762C55.007 13.0169 54.8884 12.8391 54.7105 12.7205C54.6512 12.424 54.6512 12.424 54.5919 12.3054C54.4733 12.2461 54.3548 12.2461 54.2362 12.1276C54.2362 12.0683 54.2362 12.009 54.2362 12.009C54.1769 12.009 54.0583 12.0683 53.999 12.0683C54.1769 13.017 55.1256 13.5506 55.3034 14.4993C55.2441 14.4993 55.1848 14.5586 55.1848 14.5586C55.1848 14.6179 55.1849 14.7365 55.1256 14.855C54.9477 14.6179 54.4733 14.4993 54.2954 14.5586C54.2361 14.6772 54.2362 14.6772 54.7698 15.5666C54.9477 15.863 55.1849 16.1002 55.2441 16.456C55.3034 16.5153 55.3034 16.6339 55.3034 16.7525L54.2362 15.6259C53.1096 14.2028 53.1096 14.2028 53.1096 14.2028L50.5007 12.7205C50.4414 12.7798 50.3821 12.8391 50.3821 12.8984C51.8051 14.2621 52.0423 14.2621 52.3981 14.3214V14.44C53.3468 14.9736 53.3467 14.9736 53.4653 15.1515C53.406 15.0922 53.2875 15.0329 53.2282 14.9736C53.2282 14.9736 53.1689 15.0329 53.1096 15.0329C53.1689 15.2108 53.1689 15.2108 53.406 15.5666C53.406 15.7445 53.4061 15.9816 53.3468 16.1595C53.2875 16.1595 53.2282 16.1595 53.2282 16.1595C53.2875 16.3967 53.4653 16.5153 53.4653 16.8118C53.4653 16.8118 52.8131 16.5746 52.5759 16.3374C53.3467 15.9223 53.406 15.9223 53.1096 15.5073C52.6945 14.9736 50.0263 13.4913 50.0263 13.432C49.552 13.2541 49.4927 13.5506 49.3741 14.0249C49.1369 14.0842 48.8404 13.8471 48.6033 14.1435C48.544 14.2028 48.544 14.2028 48.8404 14.9736C48.3661 15.3887 48.3661 15.3887 48.4847 16.3967C48.7811 16.6339 48.8997 17.1082 48.544 17.3454L47.3581 18.2941C47.3581 18.2941 47.3581 18.2941 47.1209 17.9383C46.8245 17.9976 46.7059 17.9976 46.1722 18.2941C46.1722 18.2348 46.1722 18.2348 45.9943 17.5233C45.6979 17.5233 44.8085 15.3294 44.8085 15.3294C44.7492 15.2701 44.6306 15.2108 44.5713 15.1515C45.4607 14.9143 46.3501 14.9144 47.1802 14.6772C47.1802 14.6772 46.8244 12.7798 44.8678 12.8984C44.8678 12.8391 44.927 12.8391 44.927 12.7798C44.8085 12.7205 44.6899 12.6612 44.5713 12.6612C44.5713 12.6019 44.5713 12.5426 44.5713 12.5426C44.8678 12.424 44.8677 12.424 45.1049 12.4833C45.1642 12.424 45.2828 12.3647 45.3421 12.3054V12.1868C45.2828 12.1275 45.1642 12.0683 45.1049 12.009C45.3421 12.0683 45.4014 12.0682 45.7572 11.9497C45.7572 11.8904 45.7572 11.7718 45.6979 11.6532C45.7572 11.5939 45.8758 11.4753 45.935 11.416C45.6386 11.1196 45.6386 11.1196 45.6386 11.1196C45.8165 11.001 45.8165 11.001 46.1129 10.8824V10.7638C45.8165 10.4673 45.7572 10.2301 45.6386 10.1709C45.6979 10.0523 45.6979 10.0523 46.1129 9.87438C46.1129 9.81509 46.1129 9.75581 46.1722 9.75581C46.2315 9.69651 46.3501 9.63721 46.4094 9.63721C46.4687 9.57792 46.4687 9.57791 46.528 9.51862C46.528 9.51862 46.528 9.51863 46.2908 9.34074C45.7572 9.04428 44.9863 8.39205 44.927 8.27347C44.8085 8.09558 45.1642 7.977 45.2235 7.977C45.3421 7.9177 45.6979 8.39205 45.7572 8.51064C45.8165 8.8071 46.2315 9.04427 46.528 9.22215C46.943 9.45932 46.943 9.40004 47.0616 9.40004C47.3581 9.28145 47.536 9.34074 47.6546 9.34074L47.2395 9.40004C47.4767 9.40004 47.7138 9.40004 47.8324 9.40004C47.8324 9.40004 47.8917 9.34074 47.951 9.28145C47.8917 9.22215 47.8917 9.22215 48.7218 8.98498H48.6625C48.6625 8.92568 48.6625 8.8664 48.6625 8.8071C48.6625 8.74781 48.6626 8.74781 48.8404 8.74781C48.7811 8.62922 48.4847 8.39204 48.4254 8.39204C48.3661 8.39204 47.8324 7.8584 47.8324 7.8584V7.7991C48.1289 7.68052 48.3068 8.03629 48.544 7.977C48.1882 7.62123 47.7139 7.50264 47.2988 7.20617C47.5953 7.14687 47.8324 7.14687 48.0696 7.14687C48.0103 7.08758 48.0103 7.08759 47.951 7.02829V6.969C48.0103 6.969 48.1289 7.02829 48.1882 6.969C47.6546 6.73182 47.0616 7.0283 46.4687 6.79112C45.8758 6.49465 45.8758 6.49465 44.9863 5.60524C44.9863 5.60524 44.9864 5.60524 45.0456 5.60524C44.9864 5.48665 44.1562 5.30877 43.9783 5.30877V5.36807C43.9783 5.36807 44.0376 5.36806 44.0376 5.42736C44.0376 5.48665 44.0377 5.48666 44.7492 5.84242C45.0456 5.96101 44.8677 6.31677 45.1049 6.49465C45.6386 6.90971 45.6386 6.90971 45.9943 7.02829C46.4687 7.14688 46.4687 7.20618 46.528 7.32476C46.4094 7.50264 46.4094 7.62122 46.8837 8.03628C47.0616 8.21416 47.2395 8.74781 47.2395 8.8071C47.0616 8.8664 46.8837 8.74781 46.7059 8.56993C46.2908 8.27347 44.5713 7.44334 44.512 7.44334C44.6306 7.62122 44.8678 7.9177 44.6899 8.15487C44.0969 8.74781 42.6739 7.20617 42.6739 7.20617C42.5553 7.08758 42.5553 7.02829 42.6146 6.9097C42.8518 6.61323 42.8518 6.61323 42.7332 6.07959C42.7332 6.07959 42.6739 5.84241 42.081 5.42736C42.081 5.42736 41.2508 4.71584 41.1916 4.59725C41.1323 4.53796 41.1323 4.53796 41.1323 4.30078C42.9704 4.71584 44.8085 5.36807 46.528 6.13889C49.6706 7.26547 52.4573 9.34074 54.7698 11.9497ZM60.6399 24.2828C60.2841 22.8597 59.8691 21.4366 58.9797 20.1915C58.9797 20.2508 58.9797 20.3694 58.9204 20.4879C58.6832 20.0729 58.6832 20.0729 58.6239 20.0136L59.9876 22.9783C60.4027 23.8677 60.5213 24.8757 60.877 25.7651C61.47 30.5679 60.5806 35.3707 58.5646 39.5805C57.7938 41.1814 56.9044 42.6638 55.7778 44.0868C55.5406 44.2647 55.3034 44.3833 55.007 44.4426L54.8884 44.324C54.8884 44.0275 54.9477 43.909 55.0663 43.7311C55.1849 43.4346 55.2442 43.3753 55.7185 40.4699C55.8371 39.6991 55.6592 38.9283 55.7778 38.2168C55.9557 37.446 56.3114 36.6751 56.43 35.845C56.5486 34.0069 56.0743 33.3547 55.7778 32.8803C55.5999 32.5839 55.4813 32.5246 55.6592 31.6945C55.7778 31.1015 55.7778 30.8051 55.422 30.3307C55.1849 30.3307 54.9477 30.5086 54.7105 30.4493C54.4733 30.3307 54.4733 30.0342 54.2362 29.9157C54.1769 29.9157 54.1176 29.9157 54.1176 29.9157C52.9317 30.2121 52.0423 30.9829 50.975 31.4573C50.7971 31.5759 49.1962 30.8643 48.959 30.5679C48.3068 29.9156 47.6546 29.3227 47.0616 28.6705C46.6466 28.1961 47.2395 27.7811 47.0616 27.3067C46.8837 26.7731 46.2908 26.4173 46.1722 25.8244C46.1722 25.8244 46.5873 23.2748 46.7059 22.9783C46.7059 22.8597 47.0616 22.3261 47.2988 22.1482C47.536 21.911 47.536 21.911 47.1802 20.7844C47.1209 20.6658 47.0616 20.5473 47.0616 20.4287C47.1209 20.0729 47.536 19.9543 47.6546 19.5985C47.7731 19.3021 47.4767 19.0649 47.5953 18.8277C47.5953 18.7684 47.6546 18.7092 47.6546 18.6499C47.6546 18.6499 47.6546 18.6499 47.7139 18.6499C48.0696 18.887 48.1882 18.8277 48.4254 18.7091C48.4254 18.7091 48.4847 18.7092 48.544 18.6499C49.552 18.6499 49.967 17.4047 50.975 17.4047C51.0343 17.3454 51.0343 17.2268 51.0936 17.1675C51.8644 17.0489 51.8644 17.0489 51.983 16.871C52.1016 16.871 52.1609 16.871 52.4574 16.9896C52.9317 17.9976 52.9317 17.9976 52.8724 18.1755C52.8724 18.2348 52.8724 18.4127 52.9317 18.472C53.1689 18.6498 55.6592 19.6578 55.8964 19.7764C55.8964 19.7171 55.9557 19.7171 56.015 19.6578C56.015 19.3021 55.7778 19.0056 55.8371 18.7091C56.7265 18.4127 57.023 19.6578 57.9124 19.4207C57.9124 19.3614 58.031 19.3021 58.0903 19.2428C58.2681 19.4207 58.3274 19.48 58.5646 19.4207C58.5646 18.8277 58.446 18.5906 57.7938 16.871C57.7345 16.871 57.6159 16.8118 57.5566 16.8118C57.6159 16.871 57.6159 17.0489 57.6159 17.1082C57.3194 17.0489 57.2008 16.8117 56.9637 16.7525C56.9637 16.7525 57.023 16.8118 57.023 16.871C57.023 16.9303 56.9637 16.9303 56.9637 16.9896C56.1928 16.6932 55.7778 15.9223 55.5999 15.448H55.4813C55.422 15.3887 55.422 15.2108 55.422 15.1515C55.5999 15.0329 55.7778 15.0329 55.8964 14.855C55.8371 14.7958 55.7778 14.7365 55.7185 14.6772C55.7778 14.6772 55.8964 14.6179 55.9557 14.6772C56.015 14.6179 55.9557 14.4993 55.9557 14.44C56.4893 14.0842 56.7265 14.7958 57.1416 14.9736C58.2088 16.6339 59.0982 18.4127 59.8098 20.3694C60.0469 21.496 60.4027 22.8597 60.6399 24.2828ZM22.3362 7.14687L22.2176 7.26547C22.2176 7.26547 21.4468 7.8584 21.3875 7.8584C21.2689 8.27346 21.9211 8.15487 21.9211 8.15487C23.4034 7.50264 23.4034 7.56193 23.522 7.56193C23.522 7.56193 24.4707 8.09558 24.4114 8.56993C24.4114 8.74781 24.4114 8.74781 24.4114 8.8071C24.4707 8.8664 24.53 8.86639 24.5893 8.92568C24.7079 9.04427 24.7079 9.16286 24.7672 9.28145C24.9451 9.16286 25.0044 8.92568 25.3008 8.92568C25.7752 8.92568 25.6566 9.34074 25.6566 9.34074C25.538 9.57792 25.2415 9.69651 25.1823 9.93368C25.123 10.0523 25.1822 10.4673 25.3008 10.5859C25.3601 10.6452 26.4274 11.5939 27.2575 12.009C27.4947 12.1275 28.1469 12.1868 28.2655 12.1868C29.3328 12.009 29.3921 11.9497 29.3921 11.8904C29.4514 11.6532 29.2735 10.2894 29.2735 10.2894C29.2142 10.1116 29.0956 9.93368 29.1549 9.69651C29.1549 9.57792 29.1549 9.57792 29.5107 9.34074C30.4594 8.62922 30.4594 8.62922 30.4594 8.39204C30.4001 8.15487 30.4001 8.03628 30.5187 7.8584C30.9337 7.44335 31.4674 7.20618 31.8231 6.79112C32.001 6.61324 32.1789 6.49464 32.2975 6.31676C32.2975 6.31676 32.3568 6.25748 32.1789 6.13889C31.9417 6.0203 31.6453 5.961 31.4081 5.78312C31.2895 5.66454 31.2302 5.48666 31.0523 5.36807C30.8744 5.24948 30.9337 5.13089 30.993 5.0123C31.1116 4.83442 30.9337 4.77513 30.6373 4.77513C29.5107 4.53796 29.5107 4.53796 29.3921 4.47866C29.3921 4.47866 29.3921 4.47866 29.3921 4.41937C29.3921 4.41937 29.3921 4.41937 29.4514 4.36008C29.1549 4.24149 28.7399 4.47866 28.4434 4.30078C28.0283 4.41937 27.554 4.59725 27.1389 4.71584C25.538 5.42736 23.8778 6.19817 22.3362 7.14687Z" fill="white"/>
</g>
<mask id="mask5_46401_274" style="mask-type:luminance" maskUnits="userSpaceOnUse" x="-112" y="-146" width="500" height="354">
<path d="M387.942 -145.832H-111.311V207.558H387.942V-145.832Z" fill="white"/>
</mask>
<g mask="url(#mask5_46401_274)">
<path fill-rule="evenodd" clip-rule="evenodd" d="M28.8599 35.3718C28.682 35.5497 28.9192 35.6683 29.0971 35.609C29.2156 35.609 29.5714 35.4311 29.5714 35.3718C29.5714 35.3718 29.5121 35.3125 29.2156 35.3125C29.0378 35.3718 28.9192 35.3718 28.8599 35.3718Z" fill="white"/>
</g>
<mask id="mask6_46401_274" style="mask-type:luminance" maskUnits="userSpaceOnUse" x="-112" y="-146" width="500" height="354">
<path d="M387.942 -145.832H-111.311V207.558H387.942V-145.832Z" fill="white"/>
</mask>
<g mask="url(#mask6_46401_274)">
<path fill-rule="evenodd" clip-rule="evenodd" d="M26.3086 35.3085L26.2493 35.3678C26.2493 35.3678 26.2493 35.3678 26.19 35.3678C26.1307 35.3678 26.0122 35.4271 25.8936 35.4271C25.5378 35.4864 25.4785 35.4864 25.4785 35.5457C25.7157 35.6049 25.9529 35.4864 26.2493 35.5457C26.3086 35.6049 26.3086 35.7235 26.4272 35.7235H26.4865C26.6644 35.6642 26.5458 35.3678 26.7237 35.2492C27.0794 35.1899 27.7317 35.012 27.7317 35.012C27.7317 35.012 27.791 35.012 27.791 34.9527C27.7317 34.8934 27.6131 34.8341 27.6131 34.6562C28.0281 34.8341 26.5458 35.2492 26.3086 35.3085Z" fill="white"/>
</g>
<mask id="mask7_46401_274" style="mask-type:luminance" maskUnits="userSpaceOnUse" x="-112" y="-146" width="500" height="354">
<path d="M387.942 -145.832H-111.311V207.558H387.942V-145.832Z" fill="white"/>
</mask>
<g mask="url(#mask7_46401_274)">
<path fill-rule="evenodd" clip-rule="evenodd" d="M22.5137 35.0752C22.5137 35.0752 22.5137 35.1345 22.573 35.0752C22.6916 35.0159 22.8694 34.8973 22.988 34.7788C23.1066 34.6602 23.2252 34.5416 23.2845 34.5416C23.4031 34.4823 23.4624 34.5416 23.5217 34.5416C23.5217 34.6009 23.4624 34.6602 23.3438 34.6009C23.3438 34.6009 23.3438 34.6009 23.3438 34.6602C23.4031 34.7788 23.6995 34.7788 23.8774 34.7788C24.2332 34.7788 24.2925 34.7788 24.4111 34.9566C24.4704 35.0752 24.7668 35.2531 24.7668 35.3124C24.7668 35.3717 24.7668 35.3717 24.7668 35.431C24.7668 35.4903 24.7075 35.4903 24.7075 35.5496C24.7075 35.5496 24.7075 35.5496 24.7075 35.6089C24.8261 35.6682 25.3005 35.6089 25.5969 35.5496C25.7155 35.4903 25.8341 35.431 25.8341 35.431C25.8341 35.431 25.8341 35.431 25.8341 35.3717C25.8341 35.3124 24.2332 34.423 24.1739 34.423C24.0553 34.3637 23.581 34.2451 22.988 34.6009C22.6916 34.7195 22.5137 35.0752 22.5137 35.0752Z" fill="white"/>
</g>
<mask id="mask8_46401_274" style="mask-type:luminance" maskUnits="userSpaceOnUse" x="-112" y="-146" width="500" height="354">
<path d="M387.942 -145.832H-111.311V207.558H387.942V-145.832Z" fill="white"/>
</mask>
<g mask="url(#mask8_46401_274)">
<path fill-rule="evenodd" clip-rule="evenodd" d="M25.065 36.2592C25.0057 36.1999 24.7686 36.1406 24.65 36.1406C24.5907 36.1406 24.5907 36.1406 24.5907 36.1406C24.4721 36.2592 24.65 36.4371 24.7093 36.4371C24.7686 36.4964 25.1243 36.4371 25.065 36.2592Z" fill="white"/>
</g>
<mask id="mask9_46401_274" style="mask-type:luminance" maskUnits="userSpaceOnUse" x="-112" y="-146" width="500" height="354">
<path d="M387.942 -145.832H-111.311V207.558H387.942V-145.832Z" fill="white"/>
</mask>
<g mask="url(#mask9_46401_274)">
<path fill-rule="evenodd" clip-rule="evenodd" d="M18.4826 16.1016L18.4233 16.1609C18.364 16.2202 18.1268 16.398 18.0675 16.4573C18.0082 16.5166 18.0675 16.6945 18.1268 16.6945C18.2454 16.6945 18.6012 16.2794 18.6012 16.1609C18.5419 16.1016 18.5419 16.1016 18.4826 16.1016Z" fill="white"/>
</g>
<mask id="mask10_46401_274" style="mask-type:luminance" maskUnits="userSpaceOnUse" x="-112" y="-146" width="500" height="354">
<path d="M387.942 -145.832H-111.311V207.558H387.942V-145.832Z" fill="white"/>
</mask>
<g mask="url(#mask10_46401_274)">
<path fill-rule="evenodd" clip-rule="evenodd" d="M17.5939 15.6281C17.5939 15.6874 17.5939 15.6874 17.5939 15.6874C17.5939 15.7467 17.5939 15.806 17.5346 15.8653L17.416 16.3989C17.5346 16.3396 17.5346 16.3396 17.5939 16.3989C17.6532 16.4582 17.6532 16.4582 17.6532 16.4582C17.6532 16.4582 17.7125 16.3989 17.7718 16.2803C17.8311 16.1024 18.0089 15.8653 18.2461 15.7467C18.2461 15.7467 18.2461 15.7467 18.3054 15.7467C18.3647 15.7467 18.3647 15.7467 18.424 15.6874C18.5426 15.6874 18.6612 15.6874 18.7798 15.5688C18.7798 15.5688 18.7798 15.5095 18.8391 15.5095V15.4502C18.8391 15.3909 18.7798 15.3909 18.7798 15.3316C18.7205 15.3316 18.6612 15.3316 18.6019 15.2723C18.5426 15.213 18.424 15.1537 18.3647 15.0945H18.3054C18.1868 15.0945 18.1275 15.1537 18.009 15.0945H17.9497C17.8904 15.0945 17.8904 15.0352 17.8311 15.0352C17.7125 15.213 17.5939 15.5688 17.5939 15.6281Z" fill="white"/>
</g>
<mask id="mask11_46401_274" style="mask-type:luminance" maskUnits="userSpaceOnUse" x="-112" y="-146" width="500" height="354">
<path d="M387.942 -145.832H-111.311V207.558H387.942V-145.832Z" fill="white"/>
</mask>
<g mask="url(#mask11_46401_274)">
<path fill-rule="evenodd" clip-rule="evenodd" d="M17.7111 10.9405L17.6518 10.9997C17.5332 11.1183 17.4146 11.2962 17.3554 11.2962C17.2961 11.3555 17.2961 11.3555 17.4146 11.3555C17.4146 11.3555 17.4146 11.3555 17.4739 11.3555C17.5332 11.2962 17.6518 11.2369 17.7111 11.1183C17.7704 10.9997 17.889 10.7626 17.7704 10.8219L17.7111 10.9405Z" fill="white"/>
</g>
<mask id="mask12_46401_274" style="mask-type:luminance" maskUnits="userSpaceOnUse" x="-112" y="-146" width="500" height="354">
<path d="M387.942 -145.832H-111.311V207.558H387.942V-145.832Z" fill="white"/>
</mask>
<g mask="url(#mask12_46401_274)">
<path fill-rule="evenodd" clip-rule="evenodd" d="M15.4591 15.2108L15.5184 15.1515C15.5777 15.1515 15.5777 15.2108 15.5777 15.2108C15.9335 15.0329 15.9928 14.8551 15.9928 14.8551C15.9928 14.7958 15.8742 14.6179 15.8742 14.6179C15.8149 14.5586 15.6963 14.5586 15.6963 14.5586C15.6963 14.5586 15.6963 14.5586 15.6963 14.6179C15.637 14.7365 15.5777 14.9144 15.4591 14.9737C15.2813 15.1515 15.2812 15.2108 15.2812 15.2108H15.4591Z" fill="white"/>
</g>
<mask id="mask13_46401_274" style="mask-type:luminance" maskUnits="userSpaceOnUse" x="-112" y="-146" width="500" height="354">
<path d="M387.942 -145.832H-111.311V207.558H387.942V-145.832Z" fill="white"/>
</mask>
<g mask="url(#mask13_46401_274)">
<path fill-rule="evenodd" clip-rule="evenodd" d="M13.3242 16.9309C13.5614 16.753 13.9172 16.338 14.095 16.0415C14.1543 15.9229 14.2136 15.8636 14.2729 15.8043C14.2729 15.8636 14.2729 15.8636 14.2729 15.9229C14.3322 15.9229 14.5694 15.9229 14.5694 15.9229C14.7473 15.7451 14.7473 15.7451 14.9251 15.3893C14.9251 15.3893 14.9251 15.3893 14.688 15.6265C14.688 15.5079 14.8659 15.2707 15.0437 15.2114C15.103 15.2114 15.103 15.2114 15.103 15.1521C15.103 15.1521 15.1623 14.9742 15.1623 14.9149C15.0437 14.8556 14.9251 14.7964 14.9251 14.6778C14.9251 14.6185 15.103 14.0848 15.2216 13.8477C14.5694 14.7371 13.9172 15.8043 13.3242 16.9309Z" fill="white"/>
</g>
<mask id="mask14_46401_274" style="mask-type:luminance" maskUnits="userSpaceOnUse" x="-112" y="-146" width="500" height="354">
<path d="M387.942 -145.832H-111.311V207.558H387.942V-145.832Z" fill="white"/>
</mask>
<g mask="url(#mask14_46401_274)">
<path fill-rule="evenodd" clip-rule="evenodd" d="M16.8231 12.2461L16.7639 12.3054C16.7046 12.3647 16.586 12.424 16.5267 12.4833C16.4081 12.5426 16.1709 12.839 16.1116 12.8983C16.1116 12.8983 16.1709 12.8983 16.1709 12.839C16.2302 12.839 16.2302 12.8983 16.2302 12.8983C16.2302 12.9576 16.0523 13.1948 15.993 13.2541C15.9337 13.1948 15.993 13.1355 15.993 13.0762C15.993 13.0762 15.7559 13.3134 15.7559 13.3727C15.7559 13.432 15.8152 13.432 15.8744 13.4913C15.8744 13.4913 15.9337 13.4913 15.9337 13.5506C15.9337 13.5506 15.9337 13.6098 15.9337 13.6691C15.993 13.7284 16.4674 13.1948 16.586 12.9576C16.586 12.8983 16.6453 12.6612 16.586 12.7205C16.5267 12.7797 16.4674 12.7797 16.4081 12.839C16.5267 12.7204 16.6453 12.6019 16.7639 12.424C16.7046 12.424 16.8231 12.2461 16.8231 12.2461Z" fill="white"/>
</g>
<mask id="mask15_46401_274" style="mask-type:luminance" maskUnits="userSpaceOnUse" x="-112" y="-146" width="500" height="354">
<path d="M387.942 -145.832H-111.311V207.558H387.942V-145.832Z" fill="white"/>
</mask>
<g mask="url(#mask15_46401_274)">
<path fill-rule="evenodd" clip-rule="evenodd" d="M15.3997 6.55469C15.3404 6.61398 15.2811 6.67329 15.1625 6.79188C3.42238 18.532 3.42238 37.506 15.1625 49.2461C26.9027 60.9863 45.8767 60.9863 57.6168 49.2461C57.6761 49.1868 57.7354 49.1276 57.854 49.009L26.6062 17.7612C26.1319 18.3541 25.361 19.0657 25.0646 19.0064C23.6415 20.0736 23.6415 20.0737 22.6928 22.2082C24.4123 20.0144 24.4123 20.0144 24.6495 20.133C24.7088 20.4887 24.4716 20.6073 24.2345 20.7852C24.3531 20.8445 24.4123 20.8445 24.6495 20.9038C24.8274 21.1409 24.8867 21.2595 25.1832 21.2595C25.0646 21.1409 25.1239 20.9038 25.0646 20.9038C25.0646 21.0224 25.1239 21.0816 25.2425 21.0816C25.3018 21.0816 25.4203 21.0817 25.6575 20.9631H25.7168C25.7168 20.9631 25.6575 21.1409 25.5389 21.2002C25.6575 21.2002 25.8354 21.2002 26.0726 21.2002C26.1319 20.9038 26.0726 20.6073 26.2505 20.3701C26.8434 21.0224 25.4203 22.7419 24.8274 22.9197C24.7681 22.7419 24.7681 22.7419 25.4203 21.8525C25.4203 21.8525 25.361 21.7932 25.361 21.7339C25.3018 21.7932 25.1832 21.7932 25.0646 21.7932C25.0646 21.7339 25.0646 21.6746 25.0646 21.6746C23.8787 23.0383 23.8787 23.0383 23.8194 23.0976C23.4636 23.7499 23.4636 23.7499 23.7008 24.6986C23.5822 24.6986 22.7521 25.6473 22.7521 25.6473C22.5742 25.9437 22.7521 26.2995 22.6928 26.6553C22.6335 26.5367 22.4557 26.4181 22.3371 26.3588C22.6928 27.5447 22.6928 27.5447 22.6335 27.6039C22.6335 27.6039 22.3371 26.8331 22.2778 26.5367L22.7521 28.3748H22.8707C22.8707 28.4341 22.93 28.4933 22.93 28.4933C22.93 28.4933 22.8707 28.5526 22.8114 28.5526C22.8114 28.5526 22.8707 28.6119 22.8707 28.6712C22.93 28.6712 22.93 28.7305 22.9893 28.7305C22.6928 29.5014 21.8034 30.0943 21.9813 31.1023C22.1592 32.051 23.8194 32.4067 23.2858 33.6519C22.3964 33.474 22.4557 32.2289 21.5663 32.1103C21.5663 32.1103 19.8467 32.8811 19.6688 33.1183V33.2368C19.7874 33.2961 19.9653 33.2961 20.0839 33.3554C20.0839 33.4147 20.0246 33.4147 20.0246 33.474C20.0246 33.474 18.7794 33.6519 18.5423 33.9484C18.4237 34.1263 17.9493 35.075 18.0086 35.49C18.0086 35.7865 18.4237 35.7865 18.483 36.083C18.6016 36.498 18.3644 36.9131 18.6609 37.3281C18.898 37.6246 19.4317 38.1582 20.499 38.3954C20.9733 38.4547 20.9733 37.9211 21.3291 37.8618C20.7361 35.6086 21.9813 36.083 22.1592 36.083C22.2778 36.6759 22.2778 36.6759 22.2185 37.3281C22.4557 37.5653 22.4557 37.5653 22.5149 38.2768C23.1079 38.0989 23.5822 37.6246 24.2345 37.6839C24.2345 37.6839 24.7088 38.0989 24.8867 38.8697C25.1832 40.1742 26.7841 38.6326 27.6735 38.929C27.1991 36.9131 29.2744 36.498 31.8833 35.9644C32.0019 35.9644 32.0612 35.9644 32.1798 35.9644C32.7728 36.0237 33.2471 36.4387 33.84 36.5573C34.6109 36.7352 35.2631 36.3201 36.0339 36.4387C36.6268 36.5573 37.1012 36.9131 37.6348 37.0317C37.9906 37.2095 38.2278 37.6839 38.7021 37.6839C39.4729 37.6246 40.3031 37.4467 41.0739 37.4467C41.6075 37.3874 42.1412 37.7432 42.6748 37.6839C42.8527 37.6839 42.9713 37.506 43.1491 37.506C43.4456 37.5653 43.2677 37.8618 43.3863 38.0396C43.4456 38.1582 43.5642 38.2175 43.6235 38.2768C43.6235 38.2768 43.6828 39.4627 42.8527 40.1742C42.912 40.1742 42.912 40.2335 42.912 40.2335C43.0899 40.3521 43.0306 40.4707 42.9713 40.7079C42.912 40.945 43.0899 41.1229 43.1491 41.3008C43.2677 41.6566 43.4456 42.0123 43.5049 42.3681C43.5642 42.546 43.5642 42.546 43.327 42.6053C43.2677 42.6646 43.1491 42.6645 43.0306 42.8424C42.8527 43.1982 43.0306 43.6725 42.6748 44.0283C42.4969 44.1469 42.1411 44.5619 42.1411 44.9177C42.1411 44.977 42.6748 47.9417 41.4889 48.3567L41.7261 48.5346C41.904 48.7125 41.904 49.1276 41.3703 49.1869C41.3703 49.1869 41.3703 49.2461 41.311 49.2461C41.4296 49.424 41.4296 49.424 41.1925 49.7798C41.7261 50.1949 41.7261 50.1948 41.7854 50.1948C41.4296 50.2541 41.4296 50.2541 41.4296 50.3134C42.2597 51.3214 42.2597 51.3214 42.6155 51.4993C42.6748 52.2701 42.6748 52.2701 44.5722 52.5073L44.3943 52.5666C44.2757 52.6259 44.1571 52.6852 43.9793 52.6852C43.2677 52.8038 42.0226 52.6852 40.3623 51.5586C38.2871 50.1356 36.2118 46.8151 36.2118 46.7558C35.7967 46.0443 35.2631 45.5699 34.7887 45.4513C34.0772 45.2735 33.425 45.3921 32.7135 45.1549C32.7135 45.1549 29.8674 43.7911 29.0965 43.2575C29.0373 43.2575 29.0373 43.1982 28.978 43.1389C28.7408 42.9017 28.5629 41.2415 28.5629 41.2415C28.6815 40.2335 28.6815 40.2335 28.5629 40.0556C28.1478 39.4627 27.2584 38.2175 26.962 39.6406C25.4203 40.2335 24.2345 38.7512 22.7521 39.0476C22.6928 39.0476 22.6335 39.0476 22.5742 39.0476C22.2185 39.1069 22.2185 39.1069 21.1512 38.929C20.6768 38.8105 20.3211 39.2255 19.906 39.2848C19.491 39.3441 19.0166 39.4034 18.6016 39.4627C18.483 39.4627 18.3051 39.4034 18.1865 39.4627C18.1272 39.4627 18.0086 39.4627 17.9493 39.4627C17.475 39.2848 17.4157 38.8105 17.1192 38.514C16.7042 38.1582 16.1705 38.0989 15.8148 37.8025C15.5183 37.5653 15.1625 37.3874 14.8661 37.1502C14.6882 37.0316 14.5696 36.8538 14.451 36.6166C14.2731 36.3794 14.1545 36.1422 13.5616 35.9644C14.5103 37.3874 14.8661 37.6246 15.1625 37.8618C15.8148 38.3361 15.8148 38.514 15.7555 38.6919C15.7555 38.6919 14.3324 37.8025 14.0952 37.5653C14.1545 37.506 14.2731 37.506 14.3324 37.4467C12.435 35.6086 12.435 35.6086 12.3757 35.6086C11.7828 34.8378 11.3677 33.9484 11.012 32.9997C10.1226 27.7818 10.9527 22.564 13.1465 17.9984L13.2058 17.8205C13.443 17.7019 13.5616 17.4647 13.7988 17.3461C13.8581 17.4647 13.7988 17.7019 13.9174 17.8205C14.0359 17.0497 14.0952 16.6939 14.5696 16.3974C14.6289 16.4567 14.6882 16.516 14.7475 16.5753C15.3997 16.3382 15.5776 16.2196 15.5776 16.1603C15.9333 15.5673 15.9333 15.5673 16.1112 15.508C15.9333 15.9231 15.9333 15.9231 16.1112 16.0417C16.1705 15.6266 16.5263 15.3302 16.6449 14.9151C16.6449 14.9151 16.6449 14.9151 16.5856 14.9151C16.5856 14.9151 16.5856 14.9151 16.5856 14.8558C16.6449 14.7372 16.7042 14.7372 16.882 14.5593C16.8228 14.5593 16.8228 14.5593 16.8228 14.5001C16.7635 14.5593 16.6449 14.6186 16.5263 14.6186C16.5263 14.6186 16.467 14.6186 16.467 14.5593C16.467 14.5593 17.1192 12.3655 17.9493 11.7725C18.0679 11.7132 18.0679 11.7132 18.1272 11.7132C17.2378 12.8398 17.2378 12.8398 17.1192 13.3142C17.1192 13.3142 17.1785 13.3142 17.1785 13.3735C17.2378 13.4328 17.2378 13.4328 17.0006 14.3222C17.2378 14.2629 17.2378 14.2629 17.2971 14.2629C17.2971 14.2629 17.1192 14.7372 17.2378 14.8558C17.3564 14.6186 17.4157 14.2629 17.6529 14.085C18.0086 14.2629 17.5343 14.6186 17.5936 14.9151C18.1865 15.1523 18.1272 14.2036 18.4237 13.8478C18.3051 12.8991 19.1352 13.3142 19.1352 13.3142C19.1352 13.3735 19.1352 13.4921 19.1352 13.5514C19.0759 13.6699 18.9573 13.7292 18.898 13.8478C18.8387 14.0257 19.0759 14.1443 19.0166 14.2629C19.0166 14.3222 18.9573 14.3815 18.9573 14.4408C18.7794 14.6779 18.7794 14.6779 18.1865 15.1523C17.9493 15.093 17.8307 15.3895 17.8307 15.3895C17.8307 15.3895 17.89 15.3302 17.9493 15.3895C17.8307 15.9824 17.1785 15.9231 16.8228 16.2196C17.2378 16.3382 17.2971 16.2789 17.7122 16.0417C17.3564 16.9311 17.3564 16.9311 16.2891 17.524C16.4077 17.5833 16.5856 17.4054 16.7042 17.5833C16.2891 18.2355 15.3404 19.6586 15.6369 20.133C16.0519 20.0144 16.0519 20.0144 16.1705 20.1922C16.4077 20.6666 16.4077 20.6666 16.5263 20.6666C16.7042 20.548 16.8228 20.3701 17.0599 20.3108C17.1192 20.3108 17.1785 20.3108 17.2378 20.3108C17.5343 20.3108 17.7122 20.548 18.0086 20.4887C18.2458 20.4887 18.483 20.1329 18.7794 20.3108C18.8387 20.3108 18.898 20.2515 18.898 20.2515C18.898 20.2515 18.898 20.3108 18.9573 20.3108C18.898 20.3701 18.898 20.4294 18.8387 20.4887C19.0166 20.6073 19.0759 20.7852 19.0759 21.2002C19.3724 21.3188 19.7281 21.2595 19.9653 21.4374C20.3804 20.8445 19.8467 20.3108 19.7874 19.7772C19.8467 19.6586 19.8467 19.6586 19.906 19.5993C19.7874 19.4214 19.9653 19.3028 20.0839 19.1843C20.5583 18.8878 20.2025 18.0577 20.2025 18.0577C20.1432 17.8798 19.906 17.8205 19.7874 17.5833C19.7281 17.4054 19.906 17.2869 19.906 17.109C19.491 16.8718 19.7874 16.3974 19.6096 16.101C19.906 15.8045 20.3211 15.7452 20.6175 15.5673C20.6768 15.5673 20.6768 15.508 20.7954 15.508C21.2105 15.508 21.2698 15.5673 21.3291 15.5673C21.3884 15.6266 21.4477 15.6266 21.507 15.6266C21.6848 15.6266 21.8627 15.4487 21.9813 15.508C21.8627 15.6859 21.922 16.2789 22.0406 16.3974C22.3371 16.3381 22.6335 16.516 22.8707 16.3381C22.93 16.2789 22.93 16.2789 22.9893 15.9824C23.0486 15.8638 23.2265 15.8638 23.2858 15.7452C23.2858 15.6266 23.1672 15.5673 23.1672 15.508C23.2265 15.093 25.1239 12.5434 22.9893 14.3222C22.9893 14.3222 22.93 14.3222 22.8707 14.3222C22.5742 14.2036 22.4557 14.2629 22.0406 14.3222C22.7521 14.6186 22.7521 14.6186 22.7521 14.6186C22.8114 14.6186 22.8114 14.6186 22.8114 14.6779C22.6335 14.9151 21.3884 15.093 21.2105 14.9744C21.4477 14.7372 21.4477 14.7372 21.4477 14.6779C20.6768 14.6186 20.6768 14.6186 20.3211 14.9151C19.906 15.2709 19.7281 15.3302 19.6688 15.2709C19.6096 15.2709 19.5503 15.0337 19.6688 14.9744C19.906 14.7372 20.2025 14.6779 20.4397 14.4408C21.2698 13.7885 21.0919 13.077 21.0919 13.077C20.9733 12.7805 20.6768 12.8991 20.4397 12.7805C20.2618 12.6619 20.1432 12.5434 20.0246 12.4248C20.0246 12.4248 19.7281 12.3062 19.6096 12.3062C19.6096 12.3655 19.5503 12.4841 19.2538 12.6619C18.898 12.8398 18.898 12.8991 18.9573 12.9584C18.8387 13.077 17.9493 13.5513 17.6529 13.4921C17.3564 13.4328 18.3051 11.7132 18.7794 11.4168C18.898 11.3575 19.1352 11.2389 19.3131 11.1796C19.491 11.5354 19.491 11.5947 19.5503 11.5947C19.5503 11.5947 19.5503 11.5947 19.7874 11.4168C20.6768 10.8831 19.7874 11.2982 19.6688 11.2389C20.0839 10.8831 19.9653 10.646 19.5503 11.0017H19.491H19.4317H19.3724H19.3131H19.2538H19.1945H19.1352H19.0759H19.0166H18.9573H18.898H18.8387H18.7794H18.7202H18.6609H18.6016H18.5423H18.483H18.4237H18.3644H18.3051H18.2458H18.1865H18.1272H18.0679C18.0086 11.0017 17.9493 11.0017 18.0679 10.8238C18.1865 10.7053 18.3051 10.5867 18.483 10.4681C18.483 10.4681 18.6016 10.4681 18.5423 10.5867C18.5423 10.646 18.483 10.646 18.4237 10.7645H18.3644C18.3644 10.8238 18.483 10.8831 18.6016 10.8238C18.6016 10.8238 18.6016 10.8238 18.6609 10.8238C18.7201 10.7645 18.7794 10.7053 18.898 10.646L15.3997 6.55469Z" fill="white"/>
</g>
<mask id="mask16_46401_274" style="mask-type:luminance" maskUnits="userSpaceOnUse" x="-112" y="-146" width="500" height="354">
<path d="M387.942 -145.832H-111.311V207.558H387.942V-145.832Z" fill="white"/>
</mask>
<g mask="url(#mask16_46401_274)">
<path d="M267.219 19.8937C269.176 19.8937 270.896 20.3087 272.259 21.1388C273.682 21.969 274.69 23.1548 275.461 24.6372C276.173 26.1788 276.528 27.9576 276.528 30.0922V42.1881H269.473V31.1595C269.473 29.3807 269.057 28.0169 268.287 27.0682C267.516 26.1195 266.33 25.7045 264.848 25.7045C263.78 25.7045 262.891 25.9416 262.061 26.4753C261.29 26.9496 260.697 27.6612 260.282 28.5506C259.867 29.44 259.63 30.5072 259.63 31.7524L257.377 30.5665C257.673 28.2541 258.266 26.2974 259.155 24.7558C260.045 23.1548 261.231 21.969 262.594 21.1388C264.077 20.3087 265.618 19.8937 267.219 19.8937ZM250.38 19.8937C252.337 19.8937 254.056 20.3087 255.42 21.1388C256.784 21.969 257.851 23.1548 258.562 24.6372C259.274 26.1788 259.63 27.9576 259.63 30.0922V42.1881H252.574V31.1595C252.574 29.3807 252.159 28.0169 251.388 27.0682C250.617 26.1195 249.431 25.7045 247.949 25.7045C246.882 25.7045 245.992 25.9416 245.162 26.4753C244.391 26.9496 243.798 27.6612 243.383 28.5506C242.968 29.44 242.731 30.5072 242.731 31.7524L240.478 30.5665C240.774 28.2541 241.367 26.2974 242.257 24.7558C243.205 23.1548 244.332 21.969 245.696 21.1388C247.178 20.3087 248.72 19.8937 250.38 19.8937ZM234.371 20.4866H241.427L242.85 28.9063V42.1288H235.794V27.839L234.371 20.4866ZM218.243 37.4446C219.666 37.4446 220.852 37.2074 221.8 36.6738C222.749 36.1995 223.52 35.4879 224.054 34.5392C224.587 33.6498 224.824 32.5232 224.824 31.2781C224.824 30.0329 224.587 28.9063 224.054 28.0169C223.52 27.1275 222.808 26.416 221.8 25.8823C220.852 25.408 219.666 25.1115 218.243 25.1115C216.879 25.1115 215.752 25.3487 214.744 25.8823C213.736 26.3567 212.966 27.0682 212.491 28.0169C211.958 28.9063 211.72 30.0329 211.72 31.2781C211.72 32.5232 211.958 33.6498 212.491 34.5392C213.025 35.4286 213.796 36.1402 214.744 36.6738C215.752 37.2074 216.938 37.4446 218.243 37.4446ZM218.243 42.781C215.515 42.781 213.084 42.3067 211.068 41.358C208.993 40.4093 207.392 39.0456 206.265 37.326C205.139 35.6065 204.546 33.5905 204.546 31.3374C204.546 29.0842 205.139 27.0682 206.265 25.3487C207.392 23.6292 208.993 22.3247 211.068 21.3167C213.144 20.368 215.515 19.8937 218.243 19.8937C220.97 19.8937 223.401 20.368 225.477 21.3167C227.552 22.2654 229.153 23.6292 230.279 25.3487C231.406 27.0682 231.999 29.0842 231.999 31.3374C231.999 33.5905 231.406 35.6065 230.279 37.326C229.153 39.0456 227.552 40.35 225.477 41.358C223.401 42.3067 220.97 42.781 218.243 42.781ZM202.174 30.3887C201.878 32.8197 201.048 35.0136 199.625 36.8517C198.202 38.6898 196.304 40.1721 193.992 41.1801C191.679 42.1881 189.011 42.7217 186.046 42.7217C182.726 42.7217 179.88 42.1288 177.389 40.8837C174.899 39.6385 173.002 37.919 171.638 35.6658C170.274 33.4126 169.563 30.863 169.563 27.8983C169.563 24.9336 170.274 22.3247 171.638 20.1309C173.002 17.8777 174.899 16.1582 177.389 14.913C179.88 13.6678 182.726 13.0749 186.046 13.0749C189.011 13.0749 191.679 13.6086 193.992 14.6165C196.304 15.6245 198.202 17.1069 199.625 18.945C201.048 20.7831 201.878 22.977 202.174 25.4673H194.94C194.703 24.1628 194.17 23.0955 193.399 22.1468C192.628 21.2574 191.62 20.5459 190.375 20.0123C189.13 19.5379 187.647 19.2415 186.046 19.2415C184.149 19.2415 182.489 19.5972 181.125 20.3087C179.761 21.0203 178.694 22.0283 177.982 23.2734C177.271 24.5779 176.856 26.1195 176.856 27.8983C176.856 29.6771 177.212 31.2188 177.982 32.5232C178.694 33.8277 179.761 34.8357 181.125 35.4879C182.489 36.1995 184.149 36.5552 186.046 36.5552C187.707 36.5552 189.13 36.318 190.375 35.8437C191.62 35.3693 192.628 34.6578 193.399 33.7684C194.17 32.879 194.703 31.7524 194.94 30.448H202.174V30.3887ZM137.841 32.879H145.134C145.252 33.7684 145.667 34.4799 146.32 35.1322C146.972 35.7844 147.861 36.318 148.988 36.6738C150.114 37.0296 151.359 37.2074 152.842 37.2074C154.917 37.2074 156.577 36.911 157.822 36.318C159.008 35.7251 159.601 34.895 159.601 33.8277C159.601 32.9976 159.246 32.4047 158.534 31.9303C157.823 31.5152 156.518 31.1595 154.621 30.9816L149.106 30.3887C145.252 30.0329 142.525 29.1435 140.805 27.7205C139.086 26.2974 138.256 24.4 138.256 22.0283C138.256 20.1309 138.849 18.5299 139.975 17.1662C141.102 15.8024 142.703 14.7944 144.719 14.0829C146.735 13.3714 149.166 13.0156 151.893 13.0156C154.621 13.0156 156.992 13.4307 159.068 14.2015C161.143 14.9723 162.803 16.0989 164.048 17.4627C165.293 18.8857 165.946 20.4866 166.064 22.384H158.771C158.653 21.6132 158.297 20.961 157.704 20.368C157.111 19.8344 156.281 19.4193 155.332 19.0636C154.324 18.7671 153.138 18.5892 151.715 18.5892C149.818 18.5892 148.276 18.8857 147.15 19.4193C146.023 19.953 145.43 20.7238 145.43 21.7318C145.43 22.5026 145.786 23.0955 146.438 23.5106C147.09 23.9257 148.336 24.2814 150.055 24.4593L155.866 25.1115C158.534 25.408 160.669 25.823 162.27 26.416C163.87 27.0089 164.997 27.839 165.709 28.9063C166.42 29.9736 166.776 31.3374 166.776 32.9383C166.776 34.895 166.183 36.6145 164.997 38.0375C163.811 39.5199 162.151 40.6465 160.076 41.4173C157.941 42.2474 155.51 42.6625 152.664 42.6625C149.759 42.6625 147.209 42.2474 145.015 41.4173C142.821 40.5872 141.102 39.4013 139.857 37.919C138.552 36.5552 137.9 34.8357 137.841 32.879ZM111.396 39.2234L107.897 35.7844H118.689C120.527 35.7844 122.128 35.4286 123.432 34.7764C124.796 34.1242 125.804 33.1755 126.575 31.9896C127.286 30.8037 127.701 29.44 127.701 27.839C127.701 26.2381 127.346 24.8151 126.575 23.6292C125.863 22.4433 124.796 21.5539 123.432 20.9017C122.068 20.2494 120.527 19.8937 118.689 19.8937H107.897L111.396 16.4547V39.2234ZM118.155 13.6678C121.475 13.6678 124.44 14.2608 126.93 15.4467C129.421 16.6325 131.378 18.2928 132.801 20.4273C134.224 22.5619 134.935 25.0522 134.935 27.8983C134.935 30.7444 134.224 33.2348 132.801 35.3693C131.378 37.5039 129.421 39.1641 126.93 40.35C124.44 41.5359 121.475 42.1288 118.155 42.1288H104.221V13.6086H118.155V13.6678ZM81.8673 28.847H89.9905L100.486 42.1881H92.1844L81.8673 28.847ZM77.2424 26.1788H87.9152C89.279 26.1788 90.3463 25.8823 91.1171 25.2301C91.8879 24.6372 92.303 23.7478 92.303 22.6212C92.303 21.4946 91.8879 20.6645 91.1171 20.0123C90.3463 19.4193 89.279 19.0636 87.9152 19.0636H76.1751L79.4363 15.5059V42.0695H72.2617V13.5493H88.8639C90.9985 13.5493 92.8366 13.905 94.4376 14.6758C96.0385 15.4467 97.2836 16.5139 98.173 17.8184C99.0625 19.1822 99.4775 20.7238 99.4775 22.5619C99.4775 24.3407 99.0625 25.8824 98.173 27.2461C97.2836 28.6099 96.0385 29.6178 94.4376 30.3887C92.8366 31.1595 90.9985 31.5152 88.8639 31.5152H77.2424V26.1788Z" fill="white"/>
</g>
<path d="M242.493 51.9717C242.434 52.3868 242.256 52.7426 241.96 53.0983C241.663 53.3948 241.367 53.6913 240.952 53.8691C240.536 54.047 240.062 54.1656 239.588 54.1656C238.995 54.1656 238.461 54.047 238.046 53.8099C237.572 53.5727 237.275 53.2762 236.979 52.8611C236.742 52.4461 236.623 51.9717 236.623 51.4381C236.623 50.9045 236.742 50.4301 236.979 50.0151C237.216 49.6 237.572 49.3035 238.046 49.0664C238.521 48.8292 238.995 48.7106 239.588 48.7106C240.062 48.7106 240.536 48.7699 240.952 48.9478C241.367 49.1256 241.722 49.3628 241.96 49.6593C242.256 49.9558 242.375 50.3708 242.493 50.7859H241.604C241.485 50.3708 241.307 50.0151 240.892 49.7779C240.536 49.5407 240.062 49.4221 239.528 49.4221C239.113 49.4221 238.758 49.4814 238.402 49.6593C238.105 49.8372 237.868 50.0744 237.69 50.3708C237.512 50.6673 237.453 51.023 237.453 51.4381C237.453 51.8532 237.512 52.2089 237.69 52.5054C237.868 52.8019 238.105 53.039 238.402 53.2169C238.698 53.3948 239.054 53.4541 239.528 53.4541C240.062 53.4541 240.477 53.3355 240.892 53.0983C241.248 52.8611 241.485 52.5054 241.604 52.0903H242.493V51.9717ZM235.081 47.9398C234.904 47.9398 234.785 47.8805 234.666 47.7619C234.548 47.6433 234.489 47.5247 234.489 47.3468C234.489 47.169 234.548 47.0504 234.666 46.9318C234.785 46.8132 234.963 46.7539 235.081 46.7539C235.259 46.7539 235.437 46.8132 235.556 46.9318C235.674 47.0504 235.734 47.169 235.734 47.3468C235.734 47.5247 235.674 47.6433 235.556 47.7619C235.437 47.8805 235.259 47.9398 235.081 47.9398ZM234.666 48.7106L235.081 48.7699L235.497 48.7106V53.9877H234.666V48.7106ZM231.049 48.592C231.524 48.592 231.939 48.7106 232.295 48.8885C232.65 49.0664 232.888 49.3628 233.065 49.7186C233.243 50.0744 233.362 50.5487 233.362 51.0823V53.9877H232.532V51.2602C232.532 50.608 232.413 50.1336 232.117 49.8372C231.82 49.5407 231.405 49.3628 230.872 49.3628C230.516 49.3628 230.16 49.4221 229.864 49.6C229.567 49.7779 229.33 50.0151 229.211 50.3115C229.033 50.608 228.974 50.9637 228.974 51.3788L228.618 51.1416C228.678 50.608 228.796 50.1929 229.034 49.7779C229.271 49.4221 229.567 49.1257 229.923 48.8885C230.219 48.7106 230.634 48.592 231.049 48.592ZM227.729 48.7106H228.559L228.856 50.4894V53.9284H228.026V50.3708L227.729 48.7106ZM226.01 53.9284L225.713 52.1496V48.7106H226.543V52.2682L226.84 53.9284H226.01ZM223.578 54.047C223.104 54.047 222.689 53.9284 222.393 53.7506C222.037 53.5727 221.8 53.2762 221.622 52.9204C221.444 52.5647 221.385 52.0903 221.385 51.5567V48.7106H222.215V51.4381C222.215 52.031 222.333 52.5054 222.63 52.8611C222.926 53.1576 223.341 53.3355 223.875 53.3355C224.231 53.3355 224.586 53.2762 224.883 53.0983C225.179 52.9204 225.357 52.6833 225.535 52.3868C225.713 52.0903 225.772 51.7346 225.772 51.3195L226.128 51.4974C226.069 52.031 225.95 52.5054 225.713 52.8611C225.476 53.2762 225.179 53.5727 224.824 53.7506C224.409 53.9877 224.053 54.047 223.578 54.047ZM217.946 48.592C218.42 48.592 218.776 48.7106 219.131 48.8885C219.428 49.0664 219.665 49.3628 219.843 49.7186C220.021 50.0744 220.08 50.5487 220.08 51.0823V53.9877H219.25V51.2602C219.25 50.608 219.131 50.1336 218.835 49.8372C218.598 49.5407 218.183 49.3628 217.708 49.3628C217.353 49.3628 217.056 49.4221 216.76 49.6C216.523 49.7779 216.285 50.0151 216.167 50.3115C216.048 50.608 215.93 50.9637 215.93 51.3788L215.574 51.1416C215.633 50.608 215.752 50.1929 215.93 49.7779C216.167 49.4221 216.404 49.1257 216.76 48.8885C217.175 48.7106 217.531 48.592 217.946 48.592ZM213.854 48.592C214.329 48.592 214.684 48.7106 214.981 48.8885C215.277 49.0664 215.515 49.3628 215.692 49.7186C215.87 50.0744 215.93 50.5487 215.93 51.0823V53.9877H215.099V51.2602C215.099 50.608 214.981 50.1336 214.684 49.8372C214.447 49.5407 214.032 49.3628 213.558 49.3628C213.202 49.3628 212.906 49.4221 212.609 49.6C212.372 49.7779 212.135 50.0151 212.016 50.3115C211.898 50.608 211.779 50.9637 211.779 51.3788L211.423 51.1416C211.483 50.608 211.601 50.1929 211.779 49.7779C212.016 49.4221 212.253 49.1257 212.609 48.8885C213.024 48.7106 213.38 48.592 213.854 48.592ZM210.712 48.7106H211.542L211.838 50.4894V53.9284H211.008V50.3708L210.712 48.7106ZM207.451 48.592C207.925 48.592 208.281 48.7106 208.636 48.8885C208.933 49.0664 209.17 49.3628 209.348 49.7186C209.526 50.0744 209.585 50.5487 209.585 51.0823V53.9877H208.755V51.2602C208.755 50.608 208.636 50.1336 208.34 49.8372C208.103 49.5407 207.688 49.3628 207.213 49.3628C206.858 49.3628 206.561 49.4221 206.265 49.6C206.028 49.7779 205.79 50.0151 205.672 50.3115C205.553 50.608 205.435 50.9637 205.435 51.3788L205.079 51.1416C205.138 50.608 205.257 50.1929 205.435 49.7779C205.672 49.4221 205.909 49.1257 206.265 48.8885C206.68 48.7106 207.036 48.592 207.451 48.592ZM203.359 48.592C203.834 48.592 204.189 48.7106 204.486 48.8885C204.782 49.0664 205.02 49.3628 205.197 49.7186C205.375 50.0744 205.435 50.5487 205.435 51.0823V53.9877H204.605V51.2602C204.605 50.608 204.486 50.1336 204.189 49.8372C203.952 49.5407 203.537 49.3628 203.063 49.3628C202.707 49.3628 202.411 49.4221 202.114 49.6C201.877 49.7779 201.64 50.0151 201.521 50.3115C201.403 50.608 201.284 50.9637 201.284 51.3788L200.928 51.1416C200.988 50.608 201.106 50.1929 201.284 49.7779C201.521 49.4221 201.758 49.1257 202.114 48.8885C202.529 48.7106 202.944 48.592 203.359 48.592ZM200.217 48.7106H201.047L201.343 50.4894V53.9284H200.513V50.3708L200.217 48.7106ZM196.244 53.3355C196.718 53.3355 197.074 53.2762 197.43 53.0983C197.786 52.9204 198.023 52.6833 198.201 52.3868C198.379 52.0903 198.497 51.7346 198.497 51.3195C198.497 50.9045 198.379 50.5487 198.201 50.2522C198.023 49.9558 197.786 49.7186 197.43 49.5407C197.074 49.3628 196.718 49.3035 196.244 49.3035C195.77 49.3035 195.414 49.3628 195.058 49.5407C194.702 49.7186 194.465 49.9558 194.287 50.2522C194.11 50.5487 193.991 50.9045 193.991 51.3195C193.991 51.7346 194.11 52.0903 194.287 52.3868C194.465 52.6833 194.702 52.9204 195.058 53.0983C195.414 53.2762 195.829 53.3355 196.244 53.3355ZM196.244 54.047C195.651 54.047 195.118 53.9284 194.643 53.6913C194.169 53.4541 193.813 53.1576 193.576 52.7426C193.339 52.3275 193.161 51.8532 193.161 51.3195C193.161 50.7859 193.279 50.3115 193.576 49.8965C193.813 49.4814 194.228 49.1849 194.643 48.9478C195.118 48.7106 195.651 48.592 196.244 48.592C196.837 48.592 197.43 48.7106 197.845 48.9478C198.319 49.1849 198.675 49.4814 198.912 49.8965C199.149 50.3115 199.327 50.7859 199.327 51.3195C199.327 51.8532 199.209 52.3275 198.912 52.7426C198.675 53.1576 198.26 53.4541 197.845 53.6913C197.43 53.9877 196.896 54.047 196.244 54.047ZM192.39 51.2602C192.331 51.7939 192.153 52.3275 191.797 52.7426C191.441 53.1576 191.026 53.5134 190.493 53.7506C189.959 53.9877 189.366 54.1063 188.655 54.1063C187.884 54.1063 187.231 53.9284 186.639 53.632C186.046 53.3355 185.631 52.9204 185.275 52.3868C184.978 51.8532 184.8 51.2009 184.8 50.4894C184.8 49.7779 184.978 49.1257 185.275 48.592C185.571 48.0584 186.046 47.6433 186.639 47.3468C187.231 47.0504 187.884 46.8725 188.655 46.8725C189.366 46.8725 189.959 46.9911 190.493 47.2282C191.026 47.4654 191.441 47.7619 191.797 48.2362C192.153 48.6513 192.331 49.1257 192.39 49.7186H191.501C191.441 49.3035 191.263 48.9478 191.026 48.6513C190.789 48.3548 190.433 48.1177 190.078 47.9398C189.662 47.7619 189.247 47.7026 188.714 47.7026C188.121 47.7026 187.587 47.8212 187.172 48.0584C186.757 48.2955 186.401 48.592 186.164 49.0071C185.927 49.4221 185.808 49.9558 185.808 50.4894C185.808 51.0823 185.927 51.5567 186.164 51.9717C186.401 52.3868 186.757 52.7426 187.172 52.9797C187.587 53.2169 188.121 53.3355 188.714 53.3355C189.247 53.3355 189.662 53.2762 190.078 53.0983C190.493 52.9204 190.789 52.6833 191.026 52.3868C191.263 52.0903 191.441 51.7346 191.501 51.3195H192.39V51.2602ZM178.812 54.047C178.219 54.047 177.685 53.9284 177.211 53.6913C176.736 53.4541 176.381 53.1576 176.144 52.7426C175.906 52.3275 175.728 51.8532 175.728 51.3195C175.728 50.7859 175.847 50.3115 176.084 49.8965C176.321 49.4814 176.677 49.1849 177.092 48.9478C177.507 48.7106 178.041 48.592 178.634 48.592C179.227 48.592 179.701 48.7106 180.116 48.9478C180.531 49.1849 180.887 49.5407 181.124 50.0151C181.361 50.4894 181.48 50.9638 181.48 51.5567H176.381V50.9045H181.124L180.65 51.2009C180.65 50.7859 180.531 50.4894 180.353 50.1929C180.176 49.8965 179.938 49.6593 179.701 49.5407C179.405 49.3628 179.108 49.3035 178.693 49.3035C178.278 49.3035 177.922 49.3628 177.626 49.5407C177.329 49.7186 177.092 49.9558 176.914 50.2522C176.736 50.5487 176.677 50.9045 176.677 51.3195C176.677 51.7346 176.796 52.0903 176.974 52.4461C177.152 52.7426 177.448 52.9797 177.804 53.1576C178.16 53.3355 178.575 53.3948 179.049 53.3948C179.464 53.3948 179.879 53.3355 180.294 53.1576C180.709 53.039 181.065 52.8019 181.421 52.5647V53.2169C181.124 53.4541 180.709 53.6913 180.294 53.8099C179.701 53.9877 179.227 54.047 178.812 54.047ZM175.017 51.9717C174.958 52.3868 174.78 52.7426 174.483 53.0983C174.187 53.3948 173.89 53.6913 173.475 53.8691C173.06 54.047 172.586 54.1656 172.112 54.1656C171.519 54.1656 170.985 54.047 170.57 53.8099C170.096 53.5727 169.799 53.2762 169.503 52.8611C169.265 52.4461 169.147 51.9717 169.147 51.4381C169.147 50.9045 169.265 50.4301 169.503 50.0151C169.74 49.6 170.096 49.3035 170.57 49.0664C171.044 48.8292 171.519 48.7106 172.112 48.7106C172.586 48.7106 173.06 48.7699 173.475 48.9478C173.89 49.1256 174.246 49.3628 174.483 49.6593C174.78 49.9558 174.898 50.3708 175.017 50.7859H174.128C174.009 50.3708 173.831 50.0151 173.416 49.7779C173.06 49.5407 172.586 49.4221 172.052 49.4221C171.637 49.4221 171.281 49.4814 170.926 49.6593C170.629 49.8372 170.392 50.0744 170.214 50.3708C170.036 50.6673 169.977 51.023 169.977 51.4381C169.977 51.8532 170.036 52.2089 170.214 52.5054C170.392 52.8019 170.629 53.039 170.926 53.2169C171.222 53.3948 171.578 53.4541 172.052 53.4541C172.586 53.4541 173.001 53.3355 173.416 53.0983C173.772 52.8611 174.009 52.5054 174.128 52.0903H175.017V51.9717ZM162.921 51.3195C162.921 51.7346 162.98 52.0903 163.158 52.3868C163.336 52.6833 163.573 52.9204 163.81 53.0983C164.107 53.2762 164.403 53.3355 164.818 53.3355C165.174 53.3355 165.53 53.2762 165.826 53.0983C166.123 52.9204 166.419 52.6833 166.657 52.3868C166.894 52.0903 167.131 51.7346 167.249 51.3195C167.072 50.9045 166.894 50.5487 166.657 50.2522C166.419 49.9558 166.123 49.7186 165.826 49.5407C165.53 49.3628 165.174 49.3035 164.818 49.3035C164.463 49.3035 164.107 49.3628 163.81 49.5407C163.514 49.7186 163.277 49.9558 163.158 50.2522C162.98 50.608 162.921 50.9045 162.921 51.3195ZM167.665 51.3195C167.546 51.8532 167.309 52.3275 167.012 52.7426C166.716 53.1576 166.36 53.4541 166.004 53.6913C165.589 53.9284 165.174 54.047 164.7 54.047C164.166 54.047 163.751 53.9284 163.336 53.6913C162.921 53.4541 162.625 53.1576 162.387 52.7426C162.15 52.3275 162.032 51.8532 162.032 51.3195C162.032 50.7859 162.15 50.3115 162.387 49.8965C162.625 49.4814 162.921 49.1849 163.336 48.9478C163.751 48.7106 164.166 48.592 164.7 48.592C165.174 48.592 165.649 48.7106 166.004 48.9478C166.419 49.1849 166.775 49.4814 167.012 49.8965C167.309 50.3115 167.487 50.7859 167.665 51.3195ZM167.309 53.9284L167.131 51.9717L167.368 51.3195L167.131 50.6673L167.309 48.7106H168.198L167.961 51.3195L168.198 53.9284H167.309ZM160.371 51.3195C160.371 50.9045 160.312 50.5487 160.134 50.2522C159.956 49.9558 159.719 49.7186 159.482 49.5407C159.186 49.3628 158.889 49.3035 158.474 49.3035C158.118 49.3035 157.762 49.3628 157.466 49.5407C157.17 49.7186 156.873 49.9558 156.636 50.2522C156.399 50.5487 156.221 50.9045 156.043 51.3195C156.221 51.7346 156.399 52.0903 156.636 52.3868C156.873 52.6833 157.17 52.9204 157.466 53.0983C157.762 53.2762 158.118 53.3355 158.474 53.3355C158.83 53.3355 159.186 53.2762 159.482 53.0983C159.778 52.9204 160.016 52.6833 160.134 52.3868C160.312 52.0903 160.371 51.7346 160.371 51.3195ZM155.628 51.3195C155.747 50.7859 155.984 50.3115 156.28 49.8965C156.577 49.4814 156.932 49.1849 157.288 48.9478C157.703 48.7106 158.118 48.592 158.593 48.592C159.126 48.592 159.541 48.7106 159.956 48.9478C160.371 49.1849 160.668 49.4814 160.905 49.8965C161.142 50.3115 161.261 50.7859 161.261 51.3195C161.261 51.8532 161.142 52.3275 160.905 52.7426C160.668 53.1576 160.371 53.4541 159.956 53.6913C159.541 53.9284 159.126 54.047 158.593 54.047C158.118 54.047 157.644 53.9284 157.288 53.6913C156.873 53.4541 156.577 53.1576 156.28 52.7426C155.984 52.3275 155.747 51.8532 155.628 51.3195ZM155.154 48.7106H155.984V50.6673L155.924 50.8452V51.6753L155.984 51.9717V55.4701H155.154V48.7106ZM147.564 51.6753H148.453C148.513 52.031 148.631 52.2682 148.868 52.5647C149.106 52.8019 149.343 52.9797 149.758 53.1576C150.114 53.2762 150.529 53.3355 151.003 53.3355C151.715 53.3355 152.248 53.2169 152.663 52.9797C153.078 52.7426 153.256 52.4461 153.256 52.031C153.256 51.7346 153.138 51.4974 152.841 51.3195C152.604 51.1416 152.13 51.0231 151.477 50.9638L150.114 50.7859C149.284 50.6673 148.631 50.4894 148.276 50.1929C147.92 49.8965 147.742 49.4814 147.742 48.9478C147.742 48.5327 147.86 48.177 148.098 47.8805C148.335 47.584 148.691 47.3468 149.165 47.169C149.639 46.9911 150.114 46.9318 150.766 46.9318C151.359 46.9318 151.892 47.0504 152.367 47.2282C152.841 47.4061 153.197 47.6433 153.493 47.9991C153.79 48.2955 153.908 48.7106 153.968 49.1257H153.078C153.019 48.8292 152.9 48.592 152.723 48.3548C152.545 48.1176 152.248 47.9991 151.952 47.8805C151.596 47.7619 151.24 47.7026 150.766 47.7026C150.114 47.7026 149.639 47.8212 149.224 48.0584C148.868 48.2955 148.631 48.592 148.631 49.0071C148.631 49.3035 148.75 49.5407 148.987 49.7186C149.224 49.8965 149.639 50.0151 150.292 50.0744L151.596 50.2522C152.189 50.3115 152.723 50.4301 153.078 50.5487C153.434 50.6673 153.731 50.9045 153.849 51.1416C154.027 51.3788 154.086 51.6753 154.086 52.031C154.086 52.4461 153.968 52.8611 153.671 53.1576C153.434 53.4541 153.019 53.7506 152.545 53.9284C152.07 54.1063 151.537 54.1656 150.884 54.1656C150.232 54.1656 149.699 54.047 149.165 53.8691C148.691 53.6913 148.276 53.3948 147.979 53.039C147.742 52.5647 147.564 52.1496 147.564 51.6753ZM143.354 51.3195C143.354 50.9045 143.295 50.5487 143.117 50.2522C142.939 49.9558 142.702 49.7186 142.465 49.5407C142.168 49.3628 141.872 49.3035 141.457 49.3035C141.101 49.3035 140.745 49.3628 140.449 49.5407C140.152 49.7186 139.856 49.9558 139.619 50.2522C139.381 50.5487 139.204 50.9045 139.026 51.3195C139.204 51.7346 139.381 52.0903 139.619 52.3868C139.856 52.6833 140.152 52.9204 140.449 53.0983C140.745 53.2762 141.101 53.3355 141.457 53.3355C141.812 53.3355 142.168 53.2762 142.465 53.0983C142.761 52.9204 142.998 52.6833 143.117 52.3868C143.236 52.0903 143.354 51.7346 143.354 51.3195ZM138.611 51.3195C138.729 50.7859 138.966 50.3115 139.263 49.8965C139.559 49.4814 139.915 49.1849 140.271 48.9478C140.686 48.7106 141.101 48.592 141.575 48.592C142.109 48.592 142.524 48.7106 142.939 48.9478C143.354 49.1849 143.651 49.4814 143.888 49.8965C144.125 50.3115 144.244 50.7859 144.244 51.3195C144.244 51.8532 144.125 52.3275 143.888 52.7426C143.651 53.1576 143.354 53.4541 142.939 53.6913C142.524 53.9284 142.109 54.047 141.575 54.047C141.101 54.047 140.627 53.9284 140.271 53.6913C139.856 53.4541 139.559 53.1576 139.263 52.7426C138.907 52.3275 138.729 51.8532 138.611 51.3195ZM138.136 48.7106H138.966V50.6673L138.907 50.8452V51.6753L138.966 51.9717V55.4701H138.136V48.7106ZM134.401 54.047C133.808 54.047 133.274 53.9284 132.8 53.6913C132.326 53.4541 131.97 53.1576 131.733 52.7426C131.495 52.3275 131.318 51.8532 131.318 51.3195C131.318 50.7859 131.436 50.3115 131.673 49.8965C131.91 49.4814 132.266 49.1849 132.681 48.9478C133.096 48.7106 133.63 48.592 134.223 48.592C134.816 48.592 135.29 48.7106 135.705 48.9478C136.12 49.1849 136.476 49.5407 136.713 50.0151C136.95 50.4894 137.069 50.9638 137.069 51.5567H131.97V50.9045H136.713L136.239 51.2009C136.239 50.7859 136.12 50.4894 135.942 50.1929C135.765 49.8965 135.527 49.6593 135.29 49.5407C134.994 49.3628 134.697 49.3035 134.282 49.3035C133.867 49.3035 133.511 49.3628 133.215 49.5407C132.918 49.7186 132.681 49.9558 132.503 50.2522C132.326 50.5487 132.266 50.9045 132.266 51.3195C132.266 51.7346 132.385 52.0903 132.563 52.4461C132.741 52.7426 133.037 52.9797 133.393 53.1576C133.749 53.3355 134.164 53.3948 134.638 53.3948C135.053 53.3948 135.468 53.3355 135.883 53.1576C136.298 53.039 136.654 52.8019 137.01 52.5647V53.2169C136.713 53.4541 136.298 53.6913 135.883 53.8099C135.29 53.9877 134.875 54.047 134.401 54.047ZM127.938 54.047C127.345 54.047 126.811 53.9284 126.337 53.6913C125.862 53.4541 125.507 53.1576 125.27 52.7426C125.032 52.3275 124.854 51.8532 124.854 51.3195C124.854 50.7859 124.973 50.3115 125.21 49.8965C125.447 49.4814 125.803 49.1849 126.218 48.9478C126.633 48.7106 127.167 48.592 127.76 48.592C128.353 48.592 128.827 48.7106 129.242 48.9478C129.657 49.1849 130.013 49.5407 130.25 50.0151C130.487 50.4894 130.606 50.9638 130.606 51.5567H125.507V50.9045H130.25L129.776 51.2009C129.776 50.7859 129.657 50.4894 129.479 50.1929C129.302 49.8965 129.064 49.6593 128.827 49.5407C128.531 49.3628 128.234 49.3035 127.819 49.3035C127.404 49.3035 127.048 49.3628 126.752 49.5407C126.455 49.7186 126.218 49.9558 126.04 50.2522C125.862 50.5487 125.803 50.9045 125.803 51.3195C125.803 51.7346 125.922 52.0903 126.1 52.4461C126.278 52.7426 126.574 52.9797 126.93 53.1576C127.286 53.3355 127.701 53.3948 128.175 53.3948C128.59 53.3948 129.005 53.3355 129.42 53.1576C129.835 53.039 130.191 52.8019 130.547 52.5647V53.2169C130.25 53.4541 129.835 53.6913 129.42 53.8099C128.827 53.9877 128.412 54.047 127.938 54.047ZM118.036 53.6913L117.502 53.1576H120.23C120.823 53.1576 121.356 53.039 121.771 52.8019C122.246 52.5647 122.542 52.2682 122.839 51.8532C123.076 51.4381 123.194 50.9637 123.194 50.4301C123.194 49.8965 123.076 49.4221 122.839 49.0071C122.601 48.592 122.246 48.2955 121.771 48.0584C121.297 47.8212 120.823 47.7026 120.23 47.7026H117.502L118.036 47.169V53.6913ZM120.111 46.9911C120.882 46.9911 121.593 47.1097 122.186 47.4061C122.779 47.7026 123.254 48.1176 123.55 48.6513C123.906 49.1849 124.024 49.7779 124.024 50.4894C124.024 51.2009 123.847 51.7939 123.55 52.3275C123.194 52.8612 122.779 53.2762 122.186 53.5727C121.593 53.8691 120.941 53.9877 120.111 53.9877H117.146V46.9911H120.111ZM110.802 48.592C111.276 48.592 111.691 48.7106 112.047 48.8885C112.403 49.0664 112.64 49.3628 112.818 49.7186C112.996 50.0744 113.114 50.5487 113.114 51.0823V53.9877H112.225V51.2602C112.225 50.608 112.106 50.1336 111.81 49.8372C111.513 49.5407 111.098 49.3628 110.565 49.3628C110.209 49.3628 109.853 49.4221 109.557 49.6C109.26 49.7779 109.023 50.0151 108.905 50.3115C108.727 50.608 108.667 50.9637 108.667 51.3788L108.312 51.1416C108.371 50.608 108.489 50.1929 108.727 49.7779C108.964 49.4221 109.26 49.1257 109.616 48.8885C109.913 48.7106 110.328 48.592 110.802 48.592ZM107.481 48.7106H108.312L108.608 50.4894V53.9284H107.778V50.3708L107.481 48.7106ZM101.137 51.3195C101.137 51.7346 101.196 52.0903 101.374 52.3868C101.552 52.6833 101.789 52.9204 102.026 53.0983C102.323 53.2762 102.619 53.3355 103.034 53.3355C103.39 53.3355 103.746 53.2762 104.042 53.0983C104.339 52.9204 104.635 52.6833 104.873 52.3868C105.11 52.0903 105.347 51.7346 105.465 51.3195C105.288 50.9045 105.11 50.5487 104.873 50.2522C104.635 49.9558 104.339 49.7186 104.042 49.5407C103.746 49.3628 103.39 49.3035 103.034 49.3035C102.679 49.3035 102.323 49.3628 102.026 49.5407C101.73 49.7186 101.493 49.9558 101.374 50.2522C101.256 50.608 101.137 50.9045 101.137 51.3195ZM105.881 51.3195C105.762 51.8532 105.525 52.3275 105.228 52.7426C104.932 53.1576 104.576 53.4541 104.22 53.6913C103.805 53.9284 103.39 54.047 102.916 54.047C102.382 54.047 101.967 53.9284 101.552 53.6913C101.137 53.4541 100.841 53.1576 100.603 52.7426C100.366 52.3275 100.248 51.8532 100.248 51.3195C100.248 50.7859 100.366 50.3115 100.603 49.8965C100.841 49.4814 101.137 49.1849 101.552 48.9478C101.967 48.7106 102.382 48.592 102.916 48.592C103.39 48.592 103.865 48.7106 104.22 48.9478C104.635 49.1849 104.991 49.4814 105.228 49.8965C105.584 50.3115 105.762 50.7859 105.881 51.3195ZM105.584 53.9284L105.406 51.9717L105.643 51.3195L105.406 50.6673L105.584 48.7106H106.473L106.236 51.3195L106.473 53.9284H105.584ZM98.7653 47.9398C98.5874 47.9398 98.4688 47.8805 98.3502 47.7619C98.2316 47.6433 98.1723 47.5247 98.1723 47.3468C98.1723 47.169 98.2316 47.0504 98.3502 46.9318C98.4688 46.8132 98.6467 46.7539 98.7653 46.7539C98.9432 46.7539 99.1211 46.8132 99.2396 46.9318C99.3582 47.0504 99.4175 47.169 99.4175 47.3468C99.4175 47.5247 99.3582 47.6433 99.2396 47.7619C99.1211 47.8805 98.9432 47.9398 98.7653 47.9398ZM98.3502 48.7106L98.7653 48.7699L99.1803 48.7106V53.9877H98.3502V48.7106ZM97.2829 52.4461C97.2829 52.8019 97.1644 53.0983 96.9865 53.3355C96.8086 53.5727 96.5121 53.7506 96.0971 53.9284C95.682 54.047 95.267 54.1063 94.674 54.1063C94.0811 54.1063 93.6067 54.047 93.1917 53.8691C92.7766 53.6913 92.4209 53.5134 92.1837 53.2169C91.9465 52.9204 91.8279 52.624 91.7686 52.2089H92.658C92.7173 52.4461 92.7766 52.6833 92.9545 52.8611C93.1324 53.039 93.3696 53.1576 93.666 53.2762C93.9625 53.3948 94.3183 53.4541 94.674 53.4541C95.2077 53.4541 95.6227 53.3948 95.9192 53.2169C96.2157 53.039 96.3935 52.8019 96.3935 52.5647C96.3935 52.3275 96.2749 52.1496 96.0971 52.0903C95.9192 51.9717 95.5041 51.9125 94.9705 51.8532L93.9625 51.7346C93.4882 51.6753 93.0731 51.616 92.7766 51.4381C92.4802 51.3195 92.243 51.1416 92.1244 50.9638C92.0058 50.7859 91.9465 50.5487 91.9465 50.3115C91.9465 49.9558 92.0651 49.6593 92.243 49.4221C92.4802 49.1849 92.7173 49.0071 93.1324 48.8885C93.4881 48.7699 93.9625 48.7106 94.4368 48.7106C94.9705 48.7106 95.4448 48.7699 95.8006 48.9478C96.2157 49.1256 96.5121 49.3035 96.7493 49.6C96.9865 49.8372 97.1051 50.1929 97.1644 50.5487H96.275C96.2157 50.3708 96.1564 50.1929 95.9785 50.0151C95.8006 49.8372 95.6227 49.7186 95.3263 49.6C95.0298 49.4814 94.7333 49.4221 94.3183 49.4221C93.8439 49.4221 93.4288 49.4814 93.1324 49.6593C92.8359 49.7779 92.7173 50.0151 92.7173 50.3115C92.7173 50.4894 92.8359 50.6673 93.0138 50.7859C93.1917 50.9045 93.4882 50.9637 93.9625 51.023L95.0891 51.1416C95.6227 51.2009 96.0378 51.2602 96.3343 51.3788C96.6307 51.4974 96.8679 51.6753 96.9865 51.8532C97.2236 51.9125 97.2829 52.1496 97.2829 52.4461ZM91.1164 52.4461C91.1164 52.8019 90.9978 53.0983 90.8199 53.3355C90.642 53.5727 90.3456 53.7506 89.9305 53.9284C89.5155 54.047 89.1004 54.1063 88.5075 54.1063C87.9145 54.1063 87.4402 54.047 87.0251 53.8691C86.6101 53.6913 86.2543 53.5134 86.0171 53.2169C85.78 52.9204 85.6614 52.624 85.6021 52.2089H86.4915C86.5508 52.4461 86.6101 52.6833 86.788 52.8611C86.9658 53.039 87.203 53.1576 87.4995 53.2762C87.7959 53.3948 88.1517 53.4541 88.5075 53.4541C89.0411 53.4541 89.4562 53.3948 89.7527 53.2169C90.0491 53.039 90.227 52.8019 90.227 52.5647C90.227 52.3275 90.1084 52.1496 89.9305 52.0903C89.7526 51.9717 89.3376 51.9125 88.8039 51.8532L87.7959 51.7346C87.3216 51.6753 86.9065 51.616 86.6101 51.4381C86.3136 51.3195 86.0764 51.1416 85.9579 50.9638C85.8393 50.7859 85.78 50.5487 85.78 50.3115C85.78 49.9558 85.8986 49.6593 86.0764 49.4221C86.3136 49.1849 86.5508 49.0071 86.9658 48.8885C87.3809 48.7699 87.796 48.7106 88.2703 48.7106C88.804 48.7106 89.2783 48.7699 89.6341 48.9478C90.0491 49.1256 90.3456 49.3035 90.5828 49.6C90.8199 49.8372 90.9385 50.1929 90.9978 50.5487H90.1084C90.0491 50.3708 89.9898 50.1929 89.8119 50.0151C89.6341 49.8372 89.4562 49.7186 89.1597 49.6C88.8632 49.4814 88.5668 49.4221 88.1517 49.4221C87.6774 49.4221 87.2623 49.4814 86.9658 49.6593C86.6694 49.7779 86.5508 50.0151 86.5508 50.3115C86.5508 50.4894 86.6694 50.6673 86.8473 50.7859C87.0251 50.9045 87.3216 50.9637 87.7959 51.023L88.9225 51.1416C89.4562 51.2009 89.8712 51.2602 90.1677 51.3788C90.4642 51.4974 90.7013 51.6753 90.8199 51.8532C91.0571 51.9125 91.1164 52.1496 91.1164 52.4461ZM84.0012 53.9284L83.7047 52.1496V48.7106H84.5348V52.2682L84.8313 53.9284H84.0012ZM81.5701 54.047C81.0958 54.047 80.6807 53.9284 80.3842 53.7506C80.0285 53.5727 79.7913 53.2762 79.6134 52.9204C79.4355 52.5647 79.3763 52.0903 79.3763 51.5567V48.7106H80.2064V51.4381C80.2064 52.031 80.325 52.5054 80.6214 52.8611C80.9179 53.1576 81.3329 53.3355 81.8666 53.3355C82.2223 53.3355 82.5781 53.2762 82.8746 53.0983C83.171 52.9204 83.3489 52.6833 83.5268 52.3868C83.7047 52.0903 83.764 51.7346 83.764 51.3195L84.1198 51.4974C84.0605 52.031 83.9419 52.5054 83.7047 52.8611C83.4675 53.2762 83.171 53.5727 82.8153 53.7506C82.4595 53.9877 82.0445 54.047 81.5701 54.047ZM74.4549 50.6673H75.5222L78.4276 53.9284H77.3603L74.4549 50.6673ZM72.9132 50.2522H75.9372C76.4116 50.2522 76.7673 50.1336 77.0638 49.8965C77.3603 49.6593 77.4789 49.3628 77.4789 48.9478C77.4789 48.5327 77.3603 48.2363 77.0638 47.9991C76.7673 47.7619 76.4116 47.6433 75.9372 47.6433H72.7947L73.2097 47.169V53.8691H72.3203V46.8725H75.9372C76.4116 46.8725 76.8266 46.9318 77.1824 47.1097C77.5381 47.2876 77.8346 47.5247 78.0125 47.8212C78.1904 48.1177 78.309 48.4734 78.309 48.8885C78.309 49.3035 78.1904 49.6593 78.0125 49.9558C77.8346 50.2522 77.5381 50.4894 77.1824 50.6673C76.8266 50.8452 76.4116 50.9045 75.9372 50.9045H72.9132V50.2522Z" fill="white"/>
<mask id="mask17_46401_274" style="mask-type:luminance" maskUnits="userSpaceOnUse" x="-112" y="-146" width="500" height="354">
<path d="M387.942 -145.832H-111.311V207.558H387.942V-145.832Z" fill="white"/>
</mask>
<g mask="url(#mask17_46401_274)">
<path d="M276.589 52.4461C276.589 52.8019 276.471 53.0983 276.293 53.3355C276.115 53.5727 275.819 53.7506 275.403 53.9284C274.988 54.047 274.573 54.1063 273.98 54.1063C273.387 54.1063 272.913 54.047 272.498 53.8691C272.083 53.6913 271.727 53.5134 271.49 53.2169C271.253 52.9204 271.134 52.624 271.075 52.2089H271.964C272.024 52.4461 272.083 52.6833 272.261 52.8611C272.439 53.039 272.676 53.1576 272.972 53.2762C273.269 53.3948 273.625 53.4541 273.98 53.4541C274.514 53.4541 274.929 53.3948 275.226 53.2169C275.522 53.039 275.7 52.8019 275.7 52.5647C275.7 52.3275 275.581 52.1496 275.403 52.0903C275.226 51.9718 274.811 51.9125 274.277 51.8532L273.269 51.7346C272.795 51.6753 272.379 51.616 272.083 51.4381C271.787 51.3195 271.549 51.1416 271.431 50.9638C271.312 50.7859 271.253 50.5487 271.253 50.3115C271.253 49.9558 271.372 49.6593 271.549 49.4221C271.787 49.1849 272.024 49.0071 272.439 48.8885C272.795 48.7699 273.269 48.7106 273.743 48.7106C274.277 48.7106 274.751 48.7699 275.107 48.9478C275.522 49.1256 275.819 49.3035 276.056 49.6C276.293 49.8372 276.411 50.1929 276.471 50.5487H275.581C275.522 50.3708 275.463 50.1929 275.285 50.0151C275.107 49.8372 274.929 49.7186 274.633 49.6C274.336 49.4814 274.04 49.4221 273.625 49.4221C273.15 49.4221 272.735 49.4814 272.439 49.6593C272.142 49.7779 272.024 50.0151 272.024 50.3115C272.024 50.4894 272.142 50.6673 272.32 50.7859C272.498 50.9045 272.795 50.9637 273.269 51.023L274.395 51.1416C274.929 51.2009 275.344 51.2602 275.641 51.3788C275.937 51.4974 276.174 51.6753 276.293 51.8532C276.53 51.9125 276.589 52.1496 276.589 52.4461ZM267.873 48.592C268.348 48.592 268.763 48.7106 269.118 48.8885C269.474 49.0664 269.711 49.3628 269.889 49.7186C270.067 50.0744 270.186 50.5487 270.186 51.0823V53.9877H269.356V51.2602C269.356 50.608 269.237 50.1336 268.94 49.8372C268.644 49.5407 268.229 49.3628 267.695 49.3628C267.34 49.3628 266.984 49.4221 266.687 49.6C266.391 49.7779 266.154 50.0151 266.035 50.3115C265.857 50.608 265.798 50.9638 265.798 51.3788L265.442 51.1416C265.501 50.608 265.62 50.1929 265.857 49.7779C266.094 49.4221 266.391 49.1257 266.747 48.8885C266.984 48.7106 267.399 48.592 267.873 48.592ZM264.553 48.7106H265.383L265.679 50.4894V53.9284H264.849V50.3708L264.553 48.7106ZM260.58 53.3355C261.054 53.3355 261.41 53.2762 261.766 53.0983C262.122 52.9204 262.359 52.6833 262.537 52.3868C262.715 52.0903 262.833 51.7346 262.833 51.3195C262.833 50.9045 262.715 50.5487 262.537 50.2522C262.359 49.9558 262.122 49.7186 261.766 49.5407C261.41 49.3628 261.054 49.3035 260.58 49.3035C260.106 49.3035 259.75 49.3628 259.394 49.5407C259.038 49.7186 258.801 49.9558 258.623 50.2522C258.446 50.5487 258.327 50.9045 258.327 51.3195C258.327 51.7346 258.446 52.0903 258.623 52.3868C258.801 52.6833 259.038 52.9204 259.394 53.0983C259.75 53.2762 260.106 53.3355 260.58 53.3355ZM260.58 54.047C259.987 54.047 259.453 53.9284 258.979 53.6913C258.505 53.4541 258.149 53.1576 257.912 52.7426C257.675 52.3275 257.497 51.8532 257.497 51.3195C257.497 50.7859 257.615 50.3115 257.912 49.8965C258.149 49.4814 258.564 49.1849 258.979 48.9478C259.453 48.7106 259.987 48.592 260.58 48.592C261.173 48.592 261.766 48.7106 262.181 48.9478C262.655 49.1849 263.011 49.4814 263.248 49.8965C263.485 50.3115 263.663 50.7859 263.663 51.3195C263.663 51.8532 263.545 52.3275 263.248 52.7426C263.011 53.1576 262.596 53.4541 262.181 53.6913C261.766 53.9877 261.232 54.047 260.58 54.047ZM255.955 47.9398C255.777 47.9398 255.659 47.8805 255.54 47.7619C255.422 47.6433 255.362 47.5247 255.362 47.3468C255.362 47.169 255.422 47.0504 255.54 46.9318C255.659 46.8132 255.837 46.7539 255.955 46.7539C256.133 46.7539 256.311 46.8132 256.43 46.9318C256.548 47.0504 256.607 47.169 256.607 47.3468C256.607 47.5247 256.548 47.6433 256.43 47.7619C256.311 47.8805 256.133 47.9398 255.955 47.9398ZM255.54 48.7106L255.955 48.7699L256.37 48.7106V53.9877H255.54V48.7106ZM249.966 49.4221V49.0071L251.093 48.7699L251.449 47.3468H251.982V48.7106H254.532V49.4221H251.982V52.0903C251.982 52.5647 252.101 52.9204 252.279 53.0983C252.516 53.2762 252.813 53.3948 253.228 53.3948C253.524 53.3948 253.761 53.3355 253.998 53.2762C254.236 53.2169 254.414 53.0983 254.651 52.9797V53.7506C254.473 53.8691 254.295 53.9284 253.998 53.9877C253.702 54.047 253.406 54.1063 253.109 54.1063C252.635 54.1063 252.279 54.047 251.982 53.8691C251.686 53.6913 251.508 53.4541 251.33 53.2169C251.212 52.9204 251.152 52.624 251.152 52.2682V49.4814H249.966V49.4221ZM244.096 51.3195C244.096 51.7346 244.156 52.0903 244.334 52.3868C244.511 52.6833 244.749 52.9204 244.986 53.0983C245.282 53.2762 245.579 53.3355 245.994 53.3355C246.35 53.3355 246.705 53.2762 247.002 53.0983C247.298 52.9204 247.595 52.6833 247.832 52.3868C248.069 52.0903 248.306 51.7346 248.425 51.3195C248.247 50.9045 248.069 50.5487 247.832 50.2522C247.595 49.9558 247.298 49.7186 247.002 49.5407C246.705 49.3628 246.35 49.3035 245.994 49.3035C245.638 49.3035 245.282 49.3628 244.986 49.5407C244.689 49.7186 244.452 49.9558 244.334 50.2522C244.156 50.608 244.096 50.9045 244.096 51.3195ZM248.84 51.3195C248.721 51.8532 248.484 52.3275 248.188 52.7426C247.891 53.1576 247.535 53.4541 247.18 53.6913C246.765 53.9284 246.35 54.047 245.875 54.047C245.342 54.047 244.927 53.9284 244.511 53.6913C244.096 53.4541 243.8 53.1576 243.563 52.7426C243.326 52.3275 243.207 51.8532 243.207 51.3195C243.207 50.7859 243.326 50.3115 243.563 49.8965C243.8 49.4814 244.096 49.1849 244.511 48.9478C244.927 48.7106 245.342 48.592 245.875 48.592C246.35 48.592 246.824 48.7106 247.18 48.9478C247.595 49.1849 247.951 49.4814 248.188 49.8965C248.484 50.3115 248.662 50.7859 248.84 51.3195ZM248.484 53.9284L248.306 51.9717L248.543 51.3195L248.306 50.6673L248.484 48.7106H249.374L249.136 51.3195L249.374 53.9284H248.484Z" fill="white"/>
</g>
</g>
</g>
<defs>
<clipPath id="clip0_46401_274">
<rect width="277" height="62" fill="white"/>
</clipPath>
</defs>
</svg>
